<?xml version="1.0" encoding="UTF-8" standalone="no"?>
<!-- Created with Inkscape (http://www.inkscape.org/) -->

<svg
   xmlns:dc="http://purl.org/dc/elements/1.1/"
   xmlns:cc="http://creativecommons.org/ns#"
   xmlns:rdf="http://www.w3.org/1999/02/22-rdf-syntax-ns#"
   xmlns:svg="http://www.w3.org/2000/svg"
   xmlns="http://www.w3.org/2000/svg"
   xmlns:xlink="http://www.w3.org/1999/xlink"
   xmlns:sodipodi="http://sodipodi.sourceforge.net/DTD/sodipodi-0.dtd"
   xmlns:inkscape="http://www.inkscape.org/namespaces/inkscape"
   width="172"
   height="56"
   viewBox="0 0 45.508334 14.816666"
   version="1.1"
   id="svg1267"
   inkscape:version="0.92.4 (5da689c313, 2019-01-14)"
   sodipodi:docname="panel-background.svg">
  <defs
     id="defs1261">
    <linearGradient
       id="q"
       x1="-912.35999"
       x2="-906.35999"
       y1="-35"
       y2="-35"
       gradientUnits="userSpaceOnUse"
       xlink:href="#a" />
    <linearGradient
       id="a">
      <stop
         stop-opacity=".66663"
         offset="0"
         id="stop8" />
      <stop
         stop-opacity="0"
         offset="1"
         id="stop10" />
    </linearGradient>
    <linearGradient
       id="p"
       x1="15"
       x2="9"
       y1="12"
       y2="12"
       gradientUnits="userSpaceOnUse"
       xlink:href="#a" />
    <radialGradient
       id="e"
       cx="22.200001"
       cy="913.96997"
       r="6"
       gradientTransform="rotate(-90.000007,-405.39,435.58995)"
       gradientUnits="userSpaceOnUse"
       xlink:href="#a" />
    <linearGradient
       id="o"
       x1="19"
       x2="19"
       y1="8"
       y2="2"
       gradientTransform="translate(58)"
       gradientUnits="userSpaceOnUse"
       xlink:href="#a" />
    <linearGradient
       id="n"
       x1="55"
       x2="61"
       y1="12"
       y2="12"
       gradientUnits="userSpaceOnUse"
       xlink:href="#a" />
    <radialGradient
       id="d"
       cx="53.893002"
       cy="911.76001"
       r="6"
       gradientTransform="translate(59.107,-903.77)"
       gradientUnits="userSpaceOnUse"
       xlink:href="#a" />
    <linearGradient
       id="m"
       x1="51"
       x2="51"
       y1="8"
       y2="2"
       gradientTransform="translate(58)"
       gradientUnits="userSpaceOnUse"
       xlink:href="#a" />
    <linearGradient
       id="l"
       x1="952.35999"
       x2="958.35999"
       y1="-35"
       y2="-35"
       gradientUnits="userSpaceOnUse"
       xlink:href="#a" />
    <linearGradient
       id="k"
       x1="19"
       x2="19"
       y1="48"
       y2="54"
       gradientTransform="translate(58)"
       gradientUnits="userSpaceOnUse"
       xlink:href="#a" />
    <radialGradient
       id="c"
       cx="7.6429"
       cy="950.35999"
       r="6"
       gradientTransform="rotate(-179.99991,40.320888,499.17997)"
       gradientUnits="userSpaceOnUse"
       xlink:href="#a" />
    <linearGradient
       id="j"
       x1="15"
       x2="9"
       y1="44"
       y2="44"
       gradientUnits="userSpaceOnUse"
       xlink:href="#a" />
    <linearGradient
       id="i"
       x1="51"
       x2="51"
       y1="48"
       y2="54"
       gradientTransform="translate(58)"
       gradientUnits="userSpaceOnUse"
       xlink:href="#a" />
    <radialGradient
       id="b"
       cx="54.25"
       cy="945.10999"
       r="6"
       gradientTransform="matrix(2.1666e-7,1,-0.99999,2.1665e-7,1058.1,-6.2502)"
       gradientUnits="userSpaceOnUse"
       xlink:href="#a" />
    <linearGradient
       id="h"
       x1="55"
       x2="61"
       y1="44"
       y2="44"
       gradientUnits="userSpaceOnUse"
       xlink:href="#a" />
    <linearGradient
       id="g"
       x1="-15"
       x2="-9"
       y1="932.35999"
       y2="932.35999"
       gradientUnits="userSpaceOnUse"
       xlink:href="#a" />
    <linearGradient
       id="f"
       x1="55"
       x2="61"
       y1="932.35999"
       y2="932.35999"
       gradientUnits="userSpaceOnUse"
       xlink:href="#a" />
    <linearGradient
       id="q-3"
       x1="-912.35999"
       x2="-906.35999"
       y1="-35"
       y2="-35"
       gradientUnits="userSpaceOnUse"
       xlink:href="#a" />
    <linearGradient
       id="p-5"
       x1="15"
       x2="9"
       y1="12"
       y2="12"
       gradientUnits="userSpaceOnUse"
       xlink:href="#a" />
    <radialGradient
       id="e-3"
       cx="22.200001"
       cy="913.96997"
       r="6"
       gradientTransform="rotate(-90.000007,-405.39,435.58995)"
       gradientUnits="userSpaceOnUse"
       xlink:href="#a" />
    <linearGradient
       id="o-5"
       x1="19"
       x2="19"
       y1="8"
       y2="2"
       gradientTransform="translate(58)"
       gradientUnits="userSpaceOnUse"
       xlink:href="#a" />
    <linearGradient
       id="n-6"
       x1="55"
       x2="61"
       y1="12"
       y2="12"
       gradientUnits="userSpaceOnUse"
       xlink:href="#a" />
    <radialGradient
       id="d-2"
       cx="53.893002"
       cy="911.76001"
       r="6"
       gradientTransform="translate(59.107,-903.77)"
       gradientUnits="userSpaceOnUse"
       xlink:href="#a" />
    <linearGradient
       id="m-9"
       x1="51"
       x2="51"
       y1="8"
       y2="2"
       gradientTransform="translate(58)"
       gradientUnits="userSpaceOnUse"
       xlink:href="#a" />
    <linearGradient
       id="l-1"
       x1="952.35999"
       x2="958.35999"
       y1="-35"
       y2="-35"
       gradientUnits="userSpaceOnUse"
       xlink:href="#a" />
    <linearGradient
       id="k-2"
       x1="19"
       x2="19"
       y1="48"
       y2="54"
       gradientTransform="translate(58)"
       gradientUnits="userSpaceOnUse"
       xlink:href="#a" />
    <radialGradient
       id="c-7"
       cx="7.6429"
       cy="950.35999"
       r="6"
       gradientTransform="rotate(-179.99991,40.320888,499.17997)"
       gradientUnits="userSpaceOnUse"
       xlink:href="#a" />
    <linearGradient
       id="j-0"
       x1="15"
       x2="9"
       y1="44"
       y2="44"
       gradientUnits="userSpaceOnUse"
       xlink:href="#a" />
    <linearGradient
       id="i-9"
       x1="51"
       x2="51"
       y1="48"
       y2="54"
       gradientTransform="translate(58)"
       gradientUnits="userSpaceOnUse"
       xlink:href="#a" />
    <radialGradient
       id="b-3"
       cx="54.25"
       cy="945.10999"
       r="6"
       gradientTransform="matrix(2.1666e-7,1,-0.99999,2.1665e-7,1058.1,-6.2502)"
       gradientUnits="userSpaceOnUse"
       xlink:href="#a" />
    <linearGradient
       id="h-6"
       x1="55"
       x2="61"
       y1="44"
       y2="44"
       gradientUnits="userSpaceOnUse"
       xlink:href="#a" />
    <linearGradient
       id="g-0"
       x1="-15"
       x2="-9"
       y1="932.35999"
       y2="932.35999"
       gradientUnits="userSpaceOnUse"
       xlink:href="#a" />
    <linearGradient
       id="f-6"
       x1="55"
       x2="61"
       y1="932.35999"
       y2="932.35999"
       gradientUnits="userSpaceOnUse"
       xlink:href="#a" />
  </defs>
  <sodipodi:namedview
     id="base"
     pagecolor="#ffffff"
     bordercolor="#666666"
     borderopacity="1.0"
     inkscape:pageopacity="0.0"
     inkscape:pageshadow="2"
     inkscape:zoom="7.919596"
     inkscape:cx="40.317777"
     inkscape:cy="20.614391"
     inkscape:document-units="mm"
     inkscape:current-layer="layer1"
     showgrid="false"
     units="px"
     inkscape:window-width="1366"
     inkscape:window-height="706"
     inkscape:window-x="0"
     inkscape:window-y="0"
     inkscape:window-maximized="1" />
  <metadata
     id="metadata1264">
    <rdf:RDF>
      <cc:Work
         rdf:about="">
        <dc:format>image/svg+xml</dc:format>
        <dc:type
           rdf:resource="http://purl.org/dc/dcmitype/StillImage" />
        <dc:title />
      </cc:Work>
    </rdf:RDF>
  </metadata>
  <g
     inkscape:label="Layer 1"
     inkscape:groupmode="layer"
     id="layer1"
     transform="translate(0,-282.18334)">
    <rect
       style="fill:#ff6600;stroke-width:0.26458332"
       x="0"
       height="1.3229166"
       width="1.3229166"
       y="282.18335"
       id="hint-tile-center" />
    <g
       id="top"
       transform="matrix(0.26458333,0,0,0.26458333,-1.3697563,42.90476)">
      <rect
         style="color:#eff0f1;fill:#222222;fill-opacity:1"
         id="rect27"
         height="32"
         width="6"
         y="-51"
         x="-916.35999"
         transform="matrix(0,-1,-1,0,0,0)"
         class="ColorScheme-Background" />
    </g>
    <g
       id="topleft"
       transform="matrix(0.26458333,0,0,0.26458333,-1.3697563,42.90476)">
      <path
         inkscape:connector-curvature="0"
         style="color:#eff0f1;fill:#222222;fill-opacity:1"
         id="path30"
         d="m 14,6 c -0.55399,0 -1,0.44601 -1,1 v 4 1 h 4 1 1 V 11 7 6 h -1 -1 z"
         transform="translate(0,904.36)"
         class="ColorScheme-Background" />
    </g>
    <g
       id="topright"
       transform="matrix(0.26458333,0,0,0.26458333,-1.3697563,42.90476)">
      <path
         inkscape:connector-curvature="0"
         style="color:#eff0f1;fill:#222222;fill-opacity:1"
         id="path33"
         d="m 51,6 v 1 4 1 h 1 1 3 1 V 11 7 C 57,6.44601 56.55399,6 56,6 h -3 -1 z"
         transform="translate(0,904.36)"
         class="ColorScheme-Background" />
    </g>
    <g
       id="bottom"
       transform="matrix(0.26458333,0,0,0.26458333,-1.3697563,42.90476)">
      <rect
         style="color:#eff0f1;fill:#222222;fill-opacity:1"
         id="rect36"
         height="32"
         width="6"
         y="-51"
         x="948.35999"
         transform="rotate(90)"
         class="ColorScheme-Background" />
    </g>
    <g
       id="bottomleft"
       transform="matrix(0.26458333,0,0,0.26458333,-1.3697563,42.90476)">
      <path
         inkscape:connector-curvature="0"
         style="color:#eff0f1;fill:#222222;fill-opacity:1"
         id="path39"
         d="m 19,954.36 v -1 -4 -1 h -1 -1 -3 -1 v 1 4 c 0,0.55399 0.44601,1 1,1 h 3 1 z"
         class="ColorScheme-Background" />
    </g>
    <g
       id="bottomright"
       transform="matrix(0.26458333,0,0,0.26458333,-1.3697563,42.90476)">
      <path
         inkscape:connector-curvature="0"
         style="color:#eff0f1;fill:#222222;fill-opacity:1"
         id="path42"
         d="m 51,954.36 v -1 -4 -1 h 1 1 3 1 v 1 4 c 0,0.55399 -0.44601,1 -1,1 h -3 -1 z"
         class="ColorScheme-Background" />
    </g>
    <g
       id="left"
       transform="matrix(0.26458333,0,0,0.26458333,-1.3697563,42.90476)">
      <rect
         style="color:#eff0f1;fill:#222222;fill-opacity:1"
         id="rect45"
         height="32"
         width="6"
         y="916.35999"
         x="-19"
         transform="scale(-1,1)"
         class="ColorScheme-Background" />
    </g>
    <g
       id="right"
       transform="matrix(0.26458333,0,0,0.26458333,-1.3697563,42.90476)">
      <rect
         style="color:#eff0f1;fill:#222222;fill-opacity:1"
         id="rect48"
         height="32"
         width="6"
         y="916.35999"
         x="51"
         class="ColorScheme-Background" />
    </g>
    <g
       id="center"
       transform="matrix(0.26458333,0,0,0.26458333,-1.3697563,42.90476)">
      <rect
         style="fill:none"
         id="rect51"
         height="32"
         width="32"
         y="916.35999"
         x="19" />
      <rect
         style="color:#eff0f1;fill:#222222;fill-opacity:1"
         id="rect53"
         height="32"
         width="32"
         y="916.35999"
         x="19"
         class="ColorScheme-Background" />
    </g>
    <g
       style="fill:#ff00ff"
       id="g60"
       transform="matrix(0.26458333,0,0,0.26458333,-1.3697563,42.90476)">
      <rect
         height="2"
         width="4"
         y="910.35999"
         x="33"
         id="hint-top-margin" />
      <rect
         height="2"
         width="4"
         y="952.35999"
         x="33"
         id="hint-bottom-margin" />
      <rect
         height="2"
         width="4"
         y="-57"
         x="930.35999"
         transform="rotate(90)"
         id="hint-right-margin" />
      <rect
         height="2"
         width="4"
         y="-15"
         x="930.35999"
         transform="rotate(90)"
         id="hint-left-margin" />
    </g>
    <g
       transform="matrix(0.26458333,0,0,0.26458333,29.321911,42.90476)"
       id="mask-top">
      <rect
         style="opacity:0.97000002"
         id="rect62"
         height="32"
         width="5"
         y="-51"
         x="-915.35999"
         transform="matrix(0,-1,-1,0,0,0)" />
    </g>
    <g
       transform="matrix(0.26458333,0,0,0.26458333,29.321911,42.90476)"
       id="mask-topleft">
      <path
         style="opacity:0.97000002"
         inkscape:connector-curvature="0"
         id="path65"
         d="m 130,6 c -0.55399,0 -1,0.44601 -1,1 v 4 h 5 V 6 h -1 z"
         transform="translate(-116,904.36)" />
    </g>
    <g
       transform="matrix(0.26458333,0,0,0.26458333,29.321911,42.90476)"
       id="mask-topright">
      <path
         style="opacity:0.97000002"
         inkscape:connector-curvature="0"
         id="path68"
         d="m 168,6 v 5 h 5 V 7 c 0,-0.55399 -0.44601,-1 -1,-1 h -3 z"
         transform="translate(-116,904.36)" />
    </g>
    <g
       transform="matrix(0.26458333,0,0,0.26458333,29.321911,42.90476)"
       id="mask-bottom">
      <rect
         style="opacity:0.97000002"
         id="rect71"
         height="32"
         width="5"
         y="-51"
         x="949.35999"
         transform="rotate(90)" />
    </g>
    <g
       transform="matrix(0.26458333,0,0,0.26458333,29.321911,42.90476)"
       id="mask-bottomleft">
      <path
         style="opacity:0.97000002"
         inkscape:connector-curvature="0"
         id="path74"
         d="m 129,45 v 4 c 0,0.55399 0.44601,1 1,1 h 3 1 v -5 z"
         transform="translate(-116,904.36)" />
    </g>
    <g
       transform="matrix(0.26458333,0,0,0.26458333,29.321911,42.90476)"
       id="mask-bottomright">
      <path
         style="opacity:0.97000002"
         inkscape:connector-curvature="0"
         id="path77"
         d="m 168,45 v 5 h 1 3 c 0.55399,0 1,-0.44601 1,-1 v -4 z"
         transform="translate(-116,904.36)" />
    </g>
    <g
       transform="matrix(0.26458333,0,0,0.26458333,29.321911,42.90476)"
       id="mask-left">
      <rect
         style="opacity:0.97000002"
         id="rect80"
         height="32"
         width="5"
         y="916.35999"
         x="-18"
         transform="scale(-1,1)" />
    </g>
    <g
       transform="matrix(0.26458333,0,0,0.26458333,29.321911,42.90476)"
       id="mask-right">
      <rect
         style="opacity:0.97000002"
         id="rect83"
         height="32"
         width="5"
         y="916.35999"
         x="52" />
    </g>
    <g
       transform="matrix(0.26458333,0,0,0.26458333,29.321911,42.90476)"
       id="mask-center">
      <rect
         style="fill:none"
         id="rect86"
         height="32"
         width="32"
         y="916.35999"
         x="19" />
      <rect
         style="opacity:0.97000002"
         id="rect88"
         height="32"
         width="32"
         y="916.35999"
         x="19" />
    </g>
    <g
       transform="matrix(0.26458333,0,0,0.26458333,13.976077,42.90476)"
       id="shadow-top">
      <rect
         style="fill:none"
         id="rect91"
         height="32"
         width="6"
         y="-51"
         x="-916.35999"
         transform="matrix(0,-1,-1,0,0,0)" />
      <rect
         style="opacity:0.9;fill:url(#q-3)"
         id="rect93"
         height="32"
         width="6"
         y="-51"
         x="-910.35999"
         transform="matrix(0,-1,-1,0,0,0)" />
      <rect
         style="fill:none"
         id="rect95"
         height="32"
         width="0.99997997"
         y="-51"
         x="-911.35999"
         transform="matrix(0,-1,-1,0,0,0)" />
    </g>
    <g
       transform="matrix(0.26458333,0,0,0.26458333,13.976077,42.90476)"
       id="shadow-topleft">
      <g
         style="fill-rule:evenodd"
         id="g104">
        <path
           inkscape:connector-curvature="0"
           style="opacity:0.9;fill:url(#p-5)"
           id="path98"
           d="m 7,7 v 1 4 h 6 V 8 7 Z"
           transform="translate(0,904.36)" />
        <path
           inkscape:connector-curvature="0"
           style="fill:url(#e-3)"
           id="path100"
           d="m 65,0 v 7 h 6 C 71,6 72,6 72,6 V 0 Z"
           transform="translate(-58,904.36)" />
        <path
           inkscape:connector-curvature="0"
           style="opacity:0.9;fill:url(#o-5)"
           id="path102"
           d="m 72,0 v 6 h 1 4 V 0 h -4 z"
           transform="translate(-58,904.36)" />
      </g>
      <g
         style="fill:none"
         id="g112">
        <rect
           id="rect106"
           ry="0.99997997"
           height="6"
           width="6"
           y="910.35999"
           x="-19"
           transform="scale(-1,1)" />
        <rect
           id="rect108"
           ry="0"
           height="6"
           width="2"
           y="910.35999"
           x="-19"
           transform="scale(-1,1)" />
        <rect
           id="rect110"
           height="2"
           width="5"
           y="914.35999"
           x="-18"
           transform="scale(-1,1)" />
      </g>
    </g>
    <g
       transform="matrix(0.26458333,0,0,0.26458333,13.976077,42.90476)"
       id="shadow-topright">
      <g
         style="fill-rule:evenodd"
         id="g121">
        <path
           inkscape:connector-curvature="0"
           style="opacity:0.9;fill:url(#n-6)"
           id="path115"
           d="m 57,7 v 1 4 h 6 V 8 7 Z"
           transform="translate(0,904.36)" />
        <path
           inkscape:connector-curvature="0"
           style="fill:url(#d-2)"
           id="path117"
           d="m 114,0 v 6 c 0,0 1,0 1,1 h 6 V 0 Z"
           transform="translate(-58,904.36)" />
        <path
           inkscape:connector-curvature="0"
           style="opacity:0.9;fill:url(#m-9)"
           id="path119"
           d="m 109,0 v 6 h 4 1 V 0 h -1 z"
           transform="translate(-58,904.36)" />
      </g>
      <g
         style="fill:none"
         id="g129">
        <rect
           id="rect123"
           ry="0.99997997"
           height="6"
           width="6"
           y="910.35999"
           x="51" />
        <rect
           id="rect125"
           ry="0"
           height="6"
           width="2"
           y="910.35999"
           x="51" />
        <rect
           id="rect127"
           height="2"
           width="5"
           y="914.35999"
           x="52" />
      </g>
    </g>
    <g
       transform="matrix(0.26458333,0,0,0.26458333,13.976077,42.90476)"
       id="shadow-bottom">
      <rect
         style="fill:none"
         id="rect132"
         height="32"
         width="6"
         y="-51"
         x="948.35999"
         transform="rotate(90)" />
      <rect
         style="opacity:0.9;fill:url(#l-1)"
         id="rect134"
         height="32"
         width="6"
         y="-51"
         x="954.35999"
         transform="rotate(90)" />
      <rect
         style="fill:none"
         id="rect136"
         height="32"
         width="1"
         y="-51"
         x="953.35999"
         transform="rotate(90)" />
    </g>
    <g
       transform="matrix(0.26458333,0,0,0.26458333,13.976077,42.90476)"
       id="shadow-bottomleft">
      <g
         style="fill-rule:evenodd"
         id="g145">
        <path
           inkscape:connector-curvature="0"
           style="opacity:0.9;fill:url(#k-2)"
           id="path139"
           d="m 72,50 v 6 h 1 4 v -6 h -4 z"
           transform="translate(-58,904.36)" />
        <path
           inkscape:connector-curvature="0"
           style="fill:url(#c-7)"
           id="path141"
           d="m 65,49 v 7 h 7 v -6 c -1,0 -1,-1 -1,-1 z"
           transform="translate(-58,904.36)" />
        <path
           inkscape:connector-curvature="0"
           style="opacity:0.9;fill:url(#j-0)"
           id="path143"
           d="m 7,44 v 4 1 h 6 v -1 -4 z"
           transform="translate(0,904.36)" />
      </g>
      <g
         style="fill:none"
         id="g153">
        <rect
           id="rect147"
           ry="0.99971998"
           height="6"
           width="6"
           y="-954.35999"
           x="-19"
           transform="scale(-1)" />
        <rect
           id="rect149"
           ry="0"
           height="6"
           width="2"
           y="-954.35999"
           x="-19"
           transform="scale(-1)" />
        <rect
           id="rect151"
           height="2"
           width="5"
           y="-950.35999"
           x="-18"
           transform="scale(-1)" />
      </g>
    </g>
    <g
       transform="matrix(0.26458333,0,0,0.26458333,13.976077,42.90476)"
       id="shadow-bottomright">
      <g
         style="fill-rule:evenodd"
         id="g162">
        <path
           inkscape:connector-curvature="0"
           style="opacity:0.9;fill:url(#i-9)"
           id="path156"
           d="m 109,50 v 6 h 4 1 v -6 h -1 z"
           transform="translate(-58,904.36)" />
        <path
           inkscape:connector-curvature="0"
           style="fill:url(#b-3)"
           id="path158"
           d="m 115,49 c 0,0 0,1 -1,1 v 6 h 7 v -7 z"
           transform="translate(-58,904.36)" />
        <path
           inkscape:connector-curvature="0"
           style="opacity:0.9;fill:url(#h-6)"
           id="path160"
           d="m 57,44 v 4 1 h 6 v -1 -4 z"
           transform="translate(0,904.36)" />
      </g>
      <g
         style="fill:none"
         id="g170">
        <rect
           id="rect164"
           ry="0.99971998"
           height="6"
           width="6"
           y="-954.35999"
           x="51"
           transform="scale(1,-1)" />
        <rect
           id="rect166"
           ry="0"
           height="6"
           width="2"
           y="-954.35999"
           x="51"
           transform="scale(1,-1)" />
        <rect
           id="rect168"
           height="2"
           width="5"
           y="-950.35999"
           x="52"
           transform="scale(1,-1)" />
      </g>
    </g>
    <g
       transform="matrix(0.26458333,0,0,0.26458333,13.976077,42.90476)"
       id="shadow-left">
      <rect
         style="fill:none"
         id="rect173"
         height="32"
         width="6"
         y="916.35999"
         x="-19"
         transform="scale(-1,1)" />
      <rect
         style="opacity:0.9;fill:url(#g-0)"
         id="rect175"
         height="32"
         width="6"
         y="916.35999"
         x="-13"
         transform="scale(-1,1)" />
      <rect
         style="fill:none"
         id="rect177"
         height="32"
         width="1"
         y="916.35999"
         x="-14"
         transform="scale(-1,1)" />
    </g>
    <g
       transform="matrix(0.26458333,0,0,0.26458333,13.976077,42.90476)"
       id="shadow-right">
      <rect
         style="fill:none"
         id="rect180"
         height="32"
         width="6"
         y="916.35999"
         x="51" />
      <rect
         style="opacity:0.9;fill:url(#f-6)"
         id="rect182"
         height="32"
         width="6"
         y="916.35999"
         x="57" />
      <rect
         style="fill:none"
         id="rect184"
         height="32"
         width="1"
         y="916.35999"
         x="56" />
    </g>
    <g
       style="fill:none"
       transform="matrix(0.26458333,0,0,0.26458333,13.976077,42.90476)"
       id="shadow-center">
      <rect
         id="rect187"
         height="32"
         width="32"
         y="916.35999"
         x="19" />
      <rect
         id="rect189"
         height="32"
         width="32"
         y="916.35999"
         x="19" />
    </g>
    <g
       style="fill:#ff00ff"
       id="g196"
       transform="matrix(0.26458333,0,0,0.26458333,-1.3697563,42.90476)">
      <rect
         height="6"
         width="4"
         y="904.35999"
         x="91"
         id="shadow-hint-top-margin" />
      <rect
         height="6"
         width="4"
         y="954.35999"
         x="91"
         id="shadow-hint-bottom-margin" />
      <rect
         height="6"
         width="4"
         y="-121"
         x="930.35999"
         transform="rotate(90)"
         id="shadow-hint-right-margin" />
      <rect
         height="6"
         width="4"
         y="-71"
         x="930.35999"
         transform="rotate(90)"
         id="shadow-hint-left-margin" />
    </g>
  </g>
</svg>
