<?xml version="1.0"?>
<svg width="22" height="22" xmlns="http://www.w3.org/2000/svg" xmlns:svg="http://www.w3.org/2000/svg" xmlns:xlink="http://www.w3.org/1999/xlink" enable-background="new" version="1.1">
 <metadata id="metadata24">image/svg+xml</metadata>

 <g class="layer">
  <title>Layer 1</title>
  <g id="inactive-center" transform="translate(-4.4823379,0.79100081)">
   <g display="inline" id="titlebutton-maximize-backdrop" transform="translate(-475.41525,188.63782)">
    <g display="inline" id="g6472" transform="translate(-781,-432.63782)">
     <ellipse cx="1302" cy="255" display="inline" fill="#888888" id="ellipse6448" opacity="0.95" rx="6" ry="6" stroke-dashoffset="0" stroke-miterlimit="4" stroke-width="0"/>
     <path d="m1302,248a7,7 0 0 0 -7,7a7,7 0 0 0 7,7a7,7 0 0 0 7,-7a7,7 0 0 0 -7,-7zm0,1a6,6 0 0 1 6,6a6,6 0 0 1 -6,6a6,6 0 0 1 -6,-6a6,6 0 0 1 6,-6z" display="inline" fill="#888888" id="path6450" opacity="0.15" stroke-dashoffset="0" stroke-miterlimit="4" stroke-width="0"/>
     <g fill="#c0e3ff" id="g6470" transform="translate(1294,247)">
      <g display="inline" fill="#c0e3ff" id="g6452" transform="translate(-81.0002,-967)"/>
      <g fill="#c0e3ff" id="g6454" transform="translate(-81.0002,-967)"/>
      <g fill="#c0e3ff" id="g6456" transform="translate(-81.0002,-967)"/>
      <g fill="#c0e3ff" id="g6458" transform="translate(-81.0002,-967)"/>
      <g fill="#c0e3ff" id="g6460" transform="translate(-81.0002,-967)"/>
      <g display="inline" fill="#c0e3ff" id="g6462" transform="translate(-81.0002,-967)"/>
      <g display="inline" fill="#c0e3ff" id="g6464" transform="translate(-81.0002,-967)"/>
      <g display="inline" fill="#c0e3ff" id="g6466" transform="translate(-81.0002,-967)"/>
      <g display="inline" fill="#c0e3ff" id="g6468" transform="translate(-81.0002,-967)"/>
     </g>
    </g>
    <rect display="inline" fill="none" height="16" id="rect6474" stroke-dashoffset="0" stroke-miterlimit="4" stroke-opacity="0" width="16" x="513" y="-185.64"/>
   </g>
   <rect fill="#000000" fill-rule="evenodd" height="22" id="rect964" opacity="0" stroke-linecap="round" stroke-linejoin="round" stroke-miterlimit="4" stroke-width="3" width="22" x="34.58" y="0"/>
  </g>
  <use height="100%" id="use1002" transform="translate(28.476029)" width="100%" x="0" xlink:href="#g1000" y="0"/>
  <use height="100%" id="deactivated-center" transform="translate(32.167366)" width="100%" x="0" xlink:href="#inactive-center" y="0"/>
  <rect display="inline" fill="none" height="22" id="rect4890" stroke-dashoffset="0" stroke-miterlimit="4" stroke-opacity="0" stroke-width="1.38" width="22" x="1.65" y="29.25"/>
  <ellipse cx="57.59" cy="-38.18" display="inline" fill="#3edd3e" fill-opacity="0.95" id="ellipse4862" opacity="0.95" rx="8.25" ry="8.25" stroke-dashoffset="0" stroke-miterlimit="4" stroke-width="0" transform="matrix(1 0 0 1 0 0)"/>
  <g clip-path="none" fill="#c0e3ff" id="g4886" transform="matrix(1.375 0 0 1.375 68.113 -65.7849)">
   <g display="inline" fill="#c0e3ff" id="g4866" transform="translate(-81.0002 -967)"/>
   <g fill="#c0e3ff" id="g4868" transform="translate(-81.0002 -967)"/>
   <g fill="#c0e3ff" id="g4870" transform="translate(-81.0002 -967)"/>
   <g fill="#c0e3ff" id="g4872" transform="translate(-81.0002 -967)"/>
   <g fill="#c0e3ff" id="g4874" transform="translate(-81.0002 -967)"/>
   <g display="inline" fill="#c0e3ff" id="g4876" transform="translate(-81.0002 -967)"/>
   <g display="inline" fill="#c0e3ff" id="g4878" transform="translate(-81.0002 -967)"/>
   <g display="inline" fill="#c0e3ff" id="g4880" transform="translate(-81.0002 -967)"/>
   <g display="inline" fill="#c0e3ff" id="g4884" transform="translate(-81.0002 -967)">
    <path d="m68.99,987.13l3.38,0c0.45,0 0.82,0.37 0.82,0.82l0,3.38l-4.2,-4.2z" fill="#ffffff" fill-rule="evenodd" id="path4882"/>
    <path d="m77.71,987.03l-3.38,0c-0.45,0 -0.82,-0.36 -0.82,-0.81l0,-3.39l4.2,4.2z" fill="#ffffff" fill-rule="evenodd" id="path5284"/>
   </g>
  </g>
  <path d="m57.59,-47.8a9.63,9.63 0 0 0 -9.63,9.63a9.63,9.63 0 0 0 9.63,9.62a9.63,9.63 0 0 0 9.62,-9.62a9.63,9.63 0 0 0 -9.62,-9.63zm0,1.38a8.25,8.25 0 0 1 8.25,8.25a8.25,8.25 0 0 1 -8.25,8.25a8.25,8.25 0 0 1 -8.25,-8.25a8.25,8.25 0 0 1 8.25,-8.25z" display="inline" fill="#888888" id="path4864" opacity="0.15" stroke-dashoffset="0" stroke-miterlimit="4" stroke-width="0"/>
  <circle cx="10.97" cy="11.03" fill="#3ee03e" id="svg_3" r="5.48" stroke="#3edd3e"/>
 </g>
</svg>