<?xml version="1.0" encoding="UTF-8" standalone="no"?>
<svg
   xmlns:dc="http://purl.org/dc/elements/1.1/"
   xmlns:cc="http://creativecommons.org/ns#"
   xmlns:rdf="http://www.w3.org/1999/02/22-rdf-syntax-ns#"
   xmlns:svg="http://www.w3.org/2000/svg"
   xmlns="http://www.w3.org/2000/svg"
   xmlns:sodipodi="http://sodipodi.sourceforge.net/DTD/sodipodi-0.dtd"
   xmlns:inkscape="http://www.inkscape.org/namespaces/inkscape"
   width="32"
   height="32"
   version="1.1"
   viewBox="0 0 32 32"
   id="svg10"
   sodipodi:docname="applications.svg"
   inkscape:version="0.92.4 (5da689c313, 2019-01-14)">
  <metadata
     id="metadata14">
    <rdf:RDF>
      <cc:Work
         rdf:about="">
        <dc:format>image/svg+xml</dc:format>
        <dc:type
           rdf:resource="http://purl.org/dc/dcmitype/StillImage" />
      </cc:Work>
    </rdf:RDF>
  </metadata>
  <sodipodi:namedview
     pagecolor="#ffffff"
     bordercolor="#666666"
     borderopacity="1"
     objecttolerance="10"
     gridtolerance="10"
     guidetolerance="10"
     inkscape:pageopacity="0"
     inkscape:pageshadow="2"
     inkscape:window-width="1366"
     inkscape:window-height="704"
     id="namedview12"
     showgrid="true"
     inkscape:zoom="10.429825"
     inkscape:cx="19.527245"
     inkscape:cy="19.553165"
     inkscape:window-x="0"
     inkscape:window-y="0"
     inkscape:window-maximized="1"
     inkscape:current-layer="svg10"
     inkscape:snap-bbox="true"
     inkscape:bbox-nodes="true">
    <inkscape:grid
       type="xygrid"
       id="grid815" />
  </sodipodi:namedview>
  <defs
     id="defs3">
    <style
       id="current-color-scheme"
       type="text/css">.ColorScheme-Text { color:#dedede; } .ColorScheme-Highlight { color:#5294e2; } .ColorScheme-ButtonBackground { color:#dedede; }</style>
  </defs>
  <g
     id="applications-other">
    <path
       style="fill:#eaeaea;fill-opacity:1;stroke-width:0.99999321;enable-background:new"
       d="M 6.25 2.9960938 C 6.25 2.9960938 3 2.9905637 3 6.2460938 L 3 25.746094 C 3 28.990569 6.25 28.996094 6.25 28.996094 L 25.75 28.996094 C 25.90405 28.990594 29 28.990594 29 25.746094 L 29 6.2460938 C 29 6.2460938 29 2.9960938 25.75 2.9960938 L 6.25 2.9960938 z M 10.175781 8 L 21.824219 8 C 23.583978 8 25 9.338 25 11 C 25 12.662 23.583978 14 21.824219 14 L 10.175781 14 C 8.4160226 14 7 12.662 7 11 C 7 9.338 8.4160226 8 10.175781 8 z M 10 9 A 2 2 0 0 0 8 11 A 2 2 0 0 0 10 13 A 2 2 0 0 0 12 11 A 2 2 0 0 0 10 9 z M 10.175781 18 L 21.824219 18 C 23.583978 18 25 19.338 25 21 C 25 22.662 23.583978 24 21.824219 24 L 10.175781 24 C 8.4160228 24 7 22.662 7 21 C 7 19.338 8.4160228 18 10.175781 18 z M 22 19 A 2 2 0 0 0 20 21 A 2 2 0 0 0 22 23 A 2 2 0 0 0 24 21 A 2 2 0 0 0 22 19 z "
       id="path5" />
    <rect
       ry="3.0341311"
       rx="2.910639"
       y="0"
       x="0"
       height="32"
       width="32"
       id="rect815"
       style="opacity:0;fill:#eaeaea;fill-opacity:1;fill-rule:evenodd;stroke:none;stroke-width:4;stroke-linecap:round;stroke-linejoin:round;stroke-miterlimit:4;stroke-dasharray:none;stroke-opacity:1;paint-order:fill markers stroke" />
  </g>
</svg>
