<svg id="svg" version="1.1" viewBox="0 0 22 22" xmlns="http://www.w3.org/2000/svg" xmlns:osb="http://www.openswatchbook.org/uri/2009/osb">
 <defs>
  <style id="current-color-scheme" type="text/css">.ColorScheme-Text { color:#dedede; } .ColorScheme-Highlight { color:#5294e2; }</style>
 </defs>
 <g id="22-22-phone">
  <rect width="22" height="22" rx="0" ry="0" opacity="0"/>
  <path class="ColorScheme-Text" d="m7 3c-1 0-1 1-1 1v14s0 1 1 1h8c1 0 1-1 1-1v-14s0-1-1-1zm8 1v11h-8v-11zm-4 12c0.55228 0 1 0.44772 1 1s-0.44772 1-1 1-1-0.44772-1-1 0.44772-1 1-1z" color="#dedede" enable-background="new" fill="currentColor" filter="url(#filter7554)"/>
 </g>
 <g id="phone">
  <rect y="-34" width="32" height="32" rx="0" ry="0" opacity="0"/>
  <path class="ColorScheme-Text" d="m10.4-30c-1.4 0-1.4004 1.5-1.4004 1.5v21s3.907e-4 1.5 1.4004 1.5h11.199c1.4 0 1.4004-1.5 1.4004-1.5v-21s-3.91e-4 -1.5-1.4004-1.5zm0.59961 2h10v16h-10zm5 17c1.1046 0 2 0.89543 2 2 0 1.1046-0.89543 2-2 2s-2-0.89543-2-2c0-1.1046 0.89543-2 2-2z" color="#dedede" enable-background="new" fill="currentColor" filter="url(#filter7554)"/>
 </g>
 <g id="22-22-phone-battery">
  <rect x="30" width="22" height="22" rx="0" ry="0" opacity="0"/>
  <path class="ColorScheme-Text" d="m37 3c-1 0-1 1-1 1v14s0 1 1 1h8c1 0 1-1 1-1v-14s0-1-1-1zm5 1h3v11h-8v-11h3zm-1 2-2 4h2v4l2-5h-2v-2zm0.30078 10c0.55228 0 1 0.44772 1 1s-0.44772 1-1 1-1-0.44772-1-1 0.44772-1 1-1z" color="#dedede" enable-background="new" fill="currentColor" filter="url(#filter7554)"/>
 </g>
 <g id="phone-battery" transform="translate(30)">
  <rect y="-34" width="32" height="32" rx="0" ry="0" opacity="0"/>
  <path class="ColorScheme-Text" transform="translate(-30)" d="m40.4-30c-1.4 0-1.4004 1.5-1.4004 1.5v21s3.91e-4 1.5 1.4004 1.5h11.199c1.4 0 1.4004-1.5 1.4004-1.5v-21s-3.91e-4 -1.5-1.4004-1.5zm0.59961 2h10v16h-10zm5 2-3 6h3v6l3-7.5h-3zm0 15c1.1046 0 2 0.89543 2 2 0 1.1046-0.89543 2-2 2s-2-0.89543-2-2c0-1.1046 0.89543-2 2-2z" color="#dedede" enable-background="new" fill="currentColor" filter="url(#filter7554)"/>
 </g>
 <g id="16-16-phone-battery">
  <rect x="33" y="26" width="16" height="16" rx="0" ry="0" opacity="0"/>
  <path class="ColorScheme-Text" d="m37.799 28c-0.8 0-0.79883 0.75-0.79883 0.75v10.5s-0.0012 0.75 0.79883 0.75h6.4004c0.8 0 0.80078-0.75 0.80078-0.75v-10.5s-8.42e-4 -0.75-0.80078-0.75zm0.20117 1h6v7h-6zm3 7 1.5-3.75h-1.5v-2.25l-1.5 3h1.5zm0 1c0.55228 0 1 0.44772 1 1s-0.44772 1-1 1-1-0.44772-1-1 0.44772-1 1-1z" color="#dedede" enable-background="new" fill="currentColor" filter="url(#filter7554)"/>
 </g>
 <g id="16-16-phone">
  <rect y="26" width="16" height="16" rx="0" ry="0" opacity="0"/>
  <path class="ColorScheme-Text" d="m4.7988 28c-0.8 0-0.79883 0.75-0.79883 0.75v10.5s-0.0012 0.75 0.79883 0.75h6.4004c0.8 0 0.80078-0.75 0.80078-0.75v-10.5s-8.42e-4 -0.75-0.80078-0.75zm0.20117 1h6v7h-6zm3 8c0.55228 0 1 0.44772 1 1s-0.44772 1-1 1-1-0.44772-1-1 0.44772-1 1-1z" color="#dedede" enable-background="new" fill="currentColor" filter="url(#filter7554)"/>
 </g>
</svg>
