<?xml version="1.0" encoding="UTF-8" standalone="no"?>
<svg
   xmlns:dc="http://purl.org/dc/elements/1.1/"
   xmlns:cc="http://creativecommons.org/ns#"
   xmlns:rdf="http://www.w3.org/1999/02/22-rdf-syntax-ns#"
   xmlns:svg="http://www.w3.org/2000/svg"
   xmlns="http://www.w3.org/2000/svg"
   xmlns:sodipodi="http://sodipodi.sourceforge.net/DTD/sodipodi-0.dtd"
   xmlns:inkscape="http://www.inkscape.org/namespaces/inkscape"
   id="svg"
   width="100%"
   height="100%"
   version="1.1"
   viewBox="0 0 22 22"
   sodipodi:docname="slc.svg"
   inkscape:version="0.92.4 (5da689c313, 2019-01-14)">
  <metadata
     id="metadata16">
    <rdf:RDF>
      <cc:Work
         rdf:about="">
        <dc:format>image/svg+xml</dc:format>
        <dc:type
           rdf:resource="http://purl.org/dc/dcmitype/StillImage" />
      </cc:Work>
    </rdf:RDF>
  </metadata>
  <sodipodi:namedview
     pagecolor="#ffffff"
     bordercolor="#666666"
     borderopacity="1"
     objecttolerance="10"
     gridtolerance="10"
     guidetolerance="10"
     inkscape:pageopacity="0"
     inkscape:pageshadow="2"
     inkscape:window-width="1366"
     inkscape:window-height="707"
     id="namedview14"
     showgrid="true"
     inkscape:zoom="2.6346769"
     inkscape:cx="49.990059"
     inkscape:cy="41.366643"
     inkscape:window-x="0"
     inkscape:window-y="0"
     inkscape:window-maximized="1"
     inkscape:current-layer="svg">
    <inkscape:grid
       type="xygrid"
       id="grid823" />
  </sodipodi:namedview>
  <defs
     id="defs81">
    <style
       id="current-color-scheme"
       type="text/css">
   .ColorScheme-Text { color:#dedede; } .ColorScheme-Highlight { color:#5294e2; } .ColorScheme-ButtonBackground { color:#dedede; }
  </style>
  </defs>
  <g
     id="slc-like"
     transform="translate(-1,-41)">
    <rect
       id="rect3791"
       class="ColorScheme-Text"
       width="22"
       height="22"
       x="1"
       y="1"
       style="fill:currentColor;fill-opacity:0;stroke:none" />
    <path
       id="path3795"
       class="ColorScheme-Text"
       d="M 9,6 C 6.9289322,6 5.25,7.6789322 5.25,9.75 5.25,13.5 10.5,16.5 12,18 13.5,16.5 18.75,13.5 18.75,9.75 18.75,7.6789322 17.071068,6 15,6 13.770304,6 12.683858,6.585574 12,7.5 11.316142,6.585574 10.229697,6 9,6 Z"
       style="color:#dedede;opacity:1;fill:currentColor;fill-opacity:1;stroke-width:1"
       inkscape:connector-curvature="0" />
  </g>
  <g
     id="slc-share"
     transform="translate(39,-1)">
    <rect
       id="rect3833"
       class="ColorScheme-Text"
       width="22"
       height="22"
       x="1"
       y="1"
       style="fill:currentColor;fill-opacity:0;stroke:none" />
    <path
       id="path3837"
       class="ColorScheme-Text"
       d="m 16.5,6 c -1.24264,0 -2.25,1.0073593 -2.25,2.25 0,0.065537 0.01795,0.1233856 0.02344,0.1875 L 9.2109375,10.546875 C 8.7982283,10.061413 8.1871072,9.75 7.5,9.75 6.2573593,9.75 5.25,10.75736 5.25,12 c 0,1.242641 1.0073593,2.25 2.25,2.25 0.6871072,0 1.2982283,-0.311413 1.7109375,-0.796875 L 14.273438,15.5625 c -0.0055,0.06411 -0.02344,0.121964 -0.02344,0.1875 0,1.24264 1.00736,2.25 2.25,2.25 1.24264,0 2.25,-1.00736 2.25,-2.25 0,-1.24264 -1.00736,-2.25 -2.25,-2.25 -0.687107,0 -1.298228,0.311414 -1.710937,0.796875 L 9.7265625,12.1875 C 9.7320531,12.123386 9.75,12.065537 9.75,12 9.75,11.93446 9.732053,11.876614 9.726563,11.8125 l 5.0625,-2.109375 C 15.201772,10.188587 15.812893,10.5 16.5,10.5 17.74264,10.5 18.75,9.4926407 18.75,8.25 18.75,7.0073593 17.74264,6 16.5,6 Z m 0,1.5 c 0.414214,0 0.75,0.3357865 0.75,0.75 C 17.25,8.6642135 16.914214,9 16.5,9 16.085786,9 15.75,8.6642135 15.75,8.25 15.75,7.8357865 16.085786,7.5 16.5,7.5 Z m -9,3.75 c 0.4142135,0 0.75,0.335786 0.75,0.75 0,0.414214 -0.3357865,0.75 -0.75,0.75 -0.4142135,0 -0.75,-0.335786 -0.75,-0.75 0,-0.414214 0.3357865,-0.75 0.75,-0.75 z m 9,3.75 c 0.414214,0 0.75,0.335786 0.75,0.75 0,0.414214 -0.335786,0.75 -0.75,0.75 -0.414214,0 -0.75,-0.335786 -0.75,-0.75 0,-0.414214 0.335786,-0.75 0.75,-0.75 z"
       style="color:#dedede;opacity:1;fill:currentColor;fill-opacity:1;stroke-width:1"
       inkscape:connector-curvature="0" />
  </g>
  <g
     id="slc-connect"
     transform="translate(-1,-1)">
    <rect
       id="rect3009"
       class="ColorScheme-Text"
       width="22"
       height="22"
       x="1"
       y="1"
       style="fill:currentColor;fill-opacity:0;stroke:none" />
    <path
       id="rect3845"
       class="ColorScheme-Text"
       d="m 13.5,6 c -0.583877,0.5838774 -0.702529,1.6265158 -0.02344,2.765625 l -3.187501,2.132813 C 9.8927574,10.738532 9.4673672,10.6193 9.0468749,10.617188 8.5003051,10.614413 7.9687499,10.78125 7.4999999,11.25 l 2.25,2.25 -3,3 -0.75,1.5 1.5,-0.75 3.0000001,-3 2.25,2.25 c 0.830223,-0.830223 0.723562,-1.880825 0.351563,-2.789062 l 2.132812,-3.1875 C 16.373484,11.202529 17.416123,11.083877 18,10.5 Z"
       style="color:#dedede;opacity:1;fill:currentColor;fill-opacity:1;stroke-width:1"
       inkscape:connector-curvature="0" />
  </g>
</svg>
