<?xml version="1.0" encoding="UTF-8" standalone="no"?>
<svg
   xmlns:dc="http://purl.org/dc/elements/1.1/"
   xmlns:cc="http://creativecommons.org/ns#"
   xmlns:rdf="http://www.w3.org/1999/02/22-rdf-syntax-ns#"
   xmlns:svg="http://www.w3.org/2000/svg"
   xmlns="http://www.w3.org/2000/svg"
   xmlns:sodipodi="http://sodipodi.sourceforge.net/DTD/sodipodi-0.dtd"
   xmlns:inkscape="http://www.inkscape.org/namespaces/inkscape"
   id="svg2"
   width="32"
   height="32"
   version="1.1"
   viewBox="0 0 32 32"
   sodipodi:docname="system.svg"
   inkscape:version="0.92.4 (5da689c313, 2019-01-14)">
  <metadata
     id="metadata59">
    <rdf:RDF>
      <cc:Work
         rdf:about="">
        <dc:format>image/svg+xml</dc:format>
        <dc:type
           rdf:resource="http://purl.org/dc/dcmitype/StillImage" />
      </cc:Work>
    </rdf:RDF>
  </metadata>
  <sodipodi:namedview
     pagecolor="#ffffff"
     bordercolor="#666666"
     borderopacity="1"
     objecttolerance="10"
     gridtolerance="10"
     guidetolerance="10"
     inkscape:pageopacity="0"
     inkscape:pageshadow="2"
     inkscape:window-width="1366"
     inkscape:window-height="704"
     id="namedview57"
     showgrid="true"
     inkscape:zoom="2.6074563"
     inkscape:cx="123.64646"
     inkscape:cy="-14.072851"
     inkscape:window-x="0"
     inkscape:window-y="0"
     inkscape:window-maximized="1"
     inkscape:current-layer="svg2"
     inkscape:snap-bbox="true"
     inkscape:bbox-nodes="true">
    <inkscape:grid
       type="xygrid"
       id="grid862" />
  </sodipodi:namedview>
  <defs
     id="defs87">
    <style
       id="current-color-scheme"
       type="text/css">
   .ColorScheme-Text { color:#dedede; } .ColorScheme-Highlight { color:#5294e2; } .ColorScheme-ButtonBackground { color:#dedede; }
  </style>
  </defs>
  <g
     id="22-22-system-suspend"
     transform="translate(-21.999999,-988.36218)">
    <rect
       id="rect4222"
       width="22"
       height="22"
       x="0"
       y="1030.36"
       style="opacity:0.001;fill:currentColor;fill-opacity:1;stroke:none;stroke-width:2;stroke-linecap:round;stroke-linejoin:round;stroke-miterlimit:4;stroke-dasharray:none;stroke-opacity:1" />
    <g
       id="g4380"
       transform="matrix(1.0009385,0,0,0.99883233,-322.31608,1012.4029)"
       style="display:inline;opacity:1;fill:currentColor;fill-opacity:1">
      <path
         id="path4398"
         class="ColorScheme-Text"
         d="M 8.0449219,2 C 5.4709885,1.9800034 3.1612109,3.6075004 2.3203125,6.0351562 2.0969331,6.6800174 1.9985687,7.3426625 2,8 1.9989991,8.6573375 2.0969831,9.3199826 2.3203125,9.9648438 3.1612109,12.3925 5.4709885,14.02 8.0449219,14 10.618845,13.980003 12.900212,12.315429 13.703125,9.875 13.906195,9.2577756 14.001361,8.6263907 14,8 14.001001,7.3736093 13.906205,6.7422244 13.703125,6.125 12.900212,3.684571 10.618845,2.0199966 8.0449219,2 Z M 8.0292969,3.9980469 C 9.7515617,4.0114312 11.263538,5.1131547 11.800781,6.7460938 11.936599,7.1589011 12.00029,7.582557 12,8 12.00029,8.417443 11.936639,8.8410989 11.800781,9.2539062 11.263538,10.886845 9.7515617,11.988573 8.0292969,12.001953 6.307032,12.015337 4.7736051,10.936893 4.2109375,9.3125 4.0615674,8.8812761 3.9955932,8.4378711 3.9960938,8 3.9955932,7.5621289 4.0615574,7.1187239 4.2109375,6.6875 4.7736051,5.0631071 6.307032,3.9846625 8.0292969,3.9980469 Z M 5.8554688,7 C 5.3807835,7 5,7.446 5,8 5,8.554 5.3807835,9 5.8554688,9 L 10.142578,9 C 10.61726,9 11,8.554 11,8 11,7.446 10.61726,7 10.142578,7 L 5.8554688,7 Z"
         transform="matrix(0.99906238,0,0,1.001169,325.01106,20.983802)"
         style="fill:#eaeaea;fill-opacity:1" />
    </g>
  </g>
  <g
     id="22-22-system-switch-user"
     transform="translate(1e-6,-988.36218)">
    <rect
       id="rect4220"
       width="22"
       height="22"
       x="0"
       y="1030.36"
       style="opacity:0.001;fill:currentColor;fill-opacity:1;stroke:none;stroke-width:2;stroke-linecap:round;stroke-linejoin:round;stroke-miterlimit:4;stroke-dasharray:none;stroke-opacity:1" />
    <path
       id="path4481"
       class="ColorScheme-Text"
       d="m 10.9943,1035.362 c -1.8700303,0 -3.3939153,1.5345 -3.4492153,3.4512 -0.0459,0.012 -0.0915,0.033 -0.13476,0.055 -0.43005,0.227 -0.54034,0.9343 -0.2461,1.5899 0.23672,0.5274 0.65753,0.8538 1.03906,0.8437 0.28723,1.7528 1.430425,3.0606 2.7910153,3.0606 l 0.0117,0 c 1.36059,0 2.5038,-1.3078 2.79102,-3.0606 0.38154,0.01 0.80234,-0.3163 1.03906,-0.8437 0.29424,-0.6556 0.18394,-1.3629 -0.24609,-1.5899 -0.0433,-0.023 -0.0888,-0.044 -0.13477,-0.055 -0.0553,-1.9167 -1.57919,-3.4512 -3.44922,-3.4512 l -0.0117,0 z m 2.40039,8 c -0.28889,0.7005 -1.27408,1.2246 -2.44922,1.2246 -1.1698503,0 -2.1455953,-0.5173 -2.4394453,-1.2129 -2.46908,0.2581 -4.26818,0.8896 -4.48438,1.6367 -0.003,0.01 0.002,0.016 0,0.024 -0.007,0.026 -0.007,0.049 -0.01,0.076 -10e-4,0.012 -0.0117,0.021 -0.0117,0.035 -9e-5,0 0,0.011 0,0.012 l 0,1.8477 c 0,0.1976 0.15571,0.3574 0.34961,0.3574 l 13.3007853,0 c 0.1939,0 0.3496,-0.1598 0.3496,-0.3574 l 0,-1.8477 c 0,-0.01 3.5e-4,-0.015 0,-0.023 -0.002,-0.043 -0.0208,-0.081 -0.0332,-0.123 -0.22075,-0.7563 -2.05842,-1.3964 -4.57226,-1.6484 z"
       style="fill:#eaeaea;fill-opacity:1" />
  </g>
  <g
     id="22-22-system-shutdown"
     transform="translate(-43.999999,-988.36218)">
    <rect
       id="rect4229"
       width="22"
       height="22"
       x="0"
       y="1030.36"
       style="opacity:0.001;fill:currentColor;fill-opacity:1;stroke:none;stroke-width:2;stroke-linecap:round;stroke-linejoin:round;stroke-miterlimit:4;stroke-dasharray:none;stroke-opacity:1" />
    <path
       id="rect4324"
       class="ColorScheme-Text"
       d="m 11.000336,1034.362 c -0.553987,0 -0.99995,0.4462 -0.99995,1 l 0,5.0019 c 0,0.5538 0.445963,0.9981 0.99995,0.9981 0.553988,0 0.99995,-0.4443 0.99995,-0.9981 l 0,-5.0019 c 0,-0.5538 -0.445962,-1 -0.99995,-1 z m 2.939305,1.9902 a 1.000176,0.99982748 0 0 0 -0.542942,1.8086 c 1.377976,1.0304 1.941017,2.8148 1.404226,4.4492 -0.536779,1.6344 -2.050513,2.7386 -3.771293,2.752 -1.7207811,0.013 -3.2501263,-1.0675 -3.8123083,-2.6934 -0.562183,-1.6258 -0.02587,-3.419 1.335869,-4.4707 a 1.000176,0.99982748 0 1 0 -1.222594,-1.582 c -2.035135,1.5718 -2.842036,4.2772 -2.001852,6.707 0.840173,2.4298 3.144793,4.0591 5.7165093,4.0391 2.571705,-0.02 4.853744,-1.6863 5.655965,-4.1289 0.80223,-2.4426 -0.04794,-5.1339 -2.107316,-6.6739 a 1.000176,0.99982748 0 0 0 -0.654264,-0.207 z"
       style="fill:#eaeaea;fill-opacity:1" />
  </g>
  <g
     id="22-22-system-log-out"
     transform="matrix(0,-1,1,0,-1096.3623,64)">
    <rect
       id="rect4235"
       width="22"
       height="22"
       x="0"
       y="1030.36"
       style="opacity:0.001;fill:currentColor;fill-opacity:1;stroke:none;stroke-width:2;stroke-linecap:round;stroke-linejoin:round;stroke-miterlimit:4;stroke-dasharray:none;stroke-opacity:1" />
    <g
       id="layer12"
       transform="matrix(1.0009385,0,0,0.99883233,-322.31609,1012.4029)"
       style="display:inline;opacity:1;fill:currentColor;fill-opacity:1">
      <path
         id="path6796"
         class="ColorScheme-Text"
         d="M 8.0449219,2 C 5.4709885,1.98 3.161211,3.6075002 2.3203125,6.0351562 2.0969411,6.6800174 1.998566,7.342662 2,8 1.998566,8.657338 2.0969411,9.3199826 2.3203125,9.9648438 3.161211,12.3925 5.4709885,14.02 8.0449219,14 10.618845,13.980003 12.900212,12.315429 13.703125,9.875 13.906197,9.2577753 14.001356,8.626391 14,8 14.001356,7.373609 13.906197,6.7422247 13.703125,6.125 12.900212,3.6845712 10.618845,2.019997 8.0449219,2 Z M 8.0292969,3.9980469 C 9.7515617,4.0114279 11.263537,5.1131547 11.800781,6.7460938 11.9366,7.1589017 12.00029,7.5825571 12,8 12.00029,8.4174429 11.936599,8.8410983 11.800781,9.2539062 11.263537,10.886845 9.7515617,11.988572 8.0292969,12.001953 6.307032,12.015337 4.773605,10.936893 4.2109375,9.3125 4.0615674,8.881276 3.995597,8.4378713 3.9960938,8 3.995597,7.5621287 4.0615674,7.118724 4.2109375,6.6875 4.773605,5.0631072 6.307032,3.9846629 8.0292969,3.9980469 Z M 6.4746094,6 A 0.4736353,0.52746185 0 0 0 6.0625,6.7890625 L 7.5898438,9.734375 A 0.4736353,0.52746185 0 0 0 7.9746094,10 0.4736353,0.52746185 0 0 0 8.0234375,10 0.4736353,0.52746185 0 0 0 8.4101562,9.734375 L 9.9375,6.7890625 A 0.4736353,0.52746185 0 0 0 9.5273438,6 L 6.4746094,6 Z"
         transform="matrix(0.99906238,0,0,1.001169,325.01107,20.983802)"
         style="fill:#eaeaea;fill-opacity:1" />
    </g>
  </g>
  <g
     id="22-22-system-reboot"
     transform="matrix(-1,0,0,1,-65.999999,-988.36218)">
    <rect
       id="rect4242"
       width="22"
       height="22"
       x="0"
       y="1030.36"
       style="opacity:0.001;fill:currentColor;fill-opacity:1;stroke:none;stroke-width:2;stroke-linecap:round;stroke-linejoin:round;stroke-miterlimit:4;stroke-dasharray:none;stroke-opacity:1" />
    <path
       id="path4360"
       class="ColorScheme-Text"
       d="m 11.475393,1035.3621 a 0.4736353,0.52746183 0 0 0 -0.412109,0.7891 l 1.527343,2.9453 a 0.4736353,0.52746183 0 0 0 0.384766,0.2656 0.4736353,0.52746183 0 0 0 0.04883,0 0.4736353,0.52746183 0 0 0 0.386718,-0.2656 l 0.326172,-0.6289 c 1.12174,1.0534 1.553588,2.6586 1.064453,4.1465 -0.536781,1.6327 -2.050703,2.7366 -3.771484,2.75 -1.7207807,0.013 -3.2503167,-1.0672 -3.8124997,-2.6915 -0.562183,-1.6242 -0.02584,-3.4141 1.335938,-4.4648 a 1.0005526,0.99921387 0 1 0 -1.222657,-1.582 c -2.035134,1.5702 -2.842137,4.2737 -2.001953,6.7011 0.840174,2.4275 3.145082,4.0552 5.7167967,4.0352 2.571705,-0.02 4.854029,-1.6848 5.65625,-4.125 0.789982,-2.4029 -0.02804,-5.0426 -2.019531,-6.5918 l 0.255859,-0.4941 a 0.4736353,0.52746183 0 0 0 -0.410156,-0.7891 l -3.052734,0 z"
       style="fill:#eaeaea;fill-opacity:1" />
  </g>
  <g
     id="22-22-system-suspend-hibernate"
     transform="translate(-110,-988.36218)">
    <rect
       id="rect4248"
       width="22"
       height="22"
       x="0"
       y="1030.36"
       style="opacity:0.001;fill:currentColor;fill-opacity:1;stroke:none;stroke-width:2;stroke-linecap:round;stroke-linejoin:round;stroke-miterlimit:4;stroke-dasharray:none;stroke-opacity:1" />
    <g
       id="g4447"
       transform="matrix(1.0009385,0,0,0.99883233,-322.31607,1012.4029)"
       style="display:inline;opacity:1;fill:currentColor;fill-opacity:1">
      <path
         id="path4455"
         class="ColorScheme-Text"
         d="M 80.044922,2 C 77.470989,1.9800034 75.161212,3.6075014 74.320312,6.0351562 74.096933,6.6800174 73.998569,7.3426625 74,8 73.999,8.6573375 74.09698,9.3199826 74.320312,9.9648438 75.161212,12.3925 77.470989,14.02 80.044922,14 82.618845,13.98 84.900212,12.315429 85.703125,9.875 85.906195,9.2577756 86.001361,8.6263907 86,8 86.001001,7.3736093 85.906205,6.7422244 85.703125,6.125 84.900212,3.684571 82.618845,2.0199966 80.044922,2 Z m -0.01563,1.9980469 c 1.722265,0.013384 3.234241,1.1151078 3.771484,2.7480469 C 83.936599,7.1589011 84.00029,7.582557 84,8 84.00029,8.417443 83.936639,8.8410989 83.800781,9.2539062 83.263538,10.886845 81.751562,11.988574 80.029297,12.001953 78.307032,12.015337 76.773605,10.936893 76.210938,9.3125 76.061566,8.8812761 75.995593,8.4378711 75.996094,8 75.995593,7.5621289 76.061556,7.1187239 76.210938,6.6875 76.773605,5.0631071 78.307032,3.9846625 80.029297,3.9980469 Z M 80,6 a 2,2 0 0 0 -2,2 2,2 0 0 0 2,2 2,2 0 0 0 2,-2 2,2 0 0 0 -2,-2 z"
         transform="matrix(0.99906238,0,0,1.001169,253.07856,20.983802)"
         style="fill:#eaeaea;fill-opacity:1" />
    </g>
  </g>
  <g
     id="22-22-system-lock-screen"
     transform="translate(22.000001,-988.36218)">
    <rect
       id="rect4255"
       width="22"
       height="22"
       x="0"
       y="1030.36"
       style="opacity:0.001;fill:currentColor;fill-opacity:1;stroke:none;stroke-width:2;stroke-linecap:round;stroke-linejoin:round;stroke-miterlimit:4;stroke-dasharray:none;stroke-opacity:1" />
    <path
       id="path5975"
       class="ColorScheme-Text"
       d="m 11,1034.3622 c -2.216,0 -4,1.8216 -4,4.0625 l 0,1.9375 -1,0 c -0.554,0 -1,0.446 -1,1 l 0,6 c 0,0.554 0.446,1 1,1 l 10,0 c 0.554,0 1,-0.446 1,-1 l 0,-6 c 0,-0.554 -0.446,-1 -1,-1 l -1,0 0,-1.9375 c 0,-2.24 -1.784,-4.0625 -4,-4.0625 z m 0,2 c 1.108,0 2,0.892 2,2 l 0,2 -4,0 0,-2 c 0,-1.108 0.892,-2 2,-2 z"
       style="fill:#eaeaea;fill-opacity:1" />
  </g>
  <g
     id="system-suspend-hibernate"
     transform="translate(64,-1020.3622)">
    <rect
       id="rect10958"
       width="32"
       height="32"
       x="0"
       y="1020.36"
       style="opacity:0.001;fill:currentColor;fill-opacity:1;stroke:none;stroke-width:2;stroke-linecap:round;stroke-linejoin:round;stroke-miterlimit:4;stroke-dasharray:none;stroke-opacity:1" />
    <g
       id="g5391"
       transform="translate(0,1020.3622)">
      <path
         id="path5391"
         class="ColorScheme-Text"
         d="M 80 2 A 14 14 0 0 0 66 16 A 14 14 0 0 0 80 30 A 14 14 0 0 0 94 16 A 14 14 0 0 0 80 2 z M 80 7 C 84.9706 7 89 11.0294 89 16 C 89 20.9706 84.9706 25 80 25 C 75.0294 25 71 20.9706 71 16 C 71 11.0294 75.0294 7 80 7 z M 80 9 C 76.134 9 73 12.134 73 16 C 73 19.866 76.134 23 80 23 C 83.866 23 87 19.866 87 16 C 87 12.134 83.866 9 80 9 z M 80 14 A 2 2 0 0 1 82 16 A 2 2 0 0 1 80 18 A 2 2 0 0 1 78 16 A 2 2 0 0 1 80 14 z"
         transform="translate(-64)"
         style="fill:#eaeaea;fill-opacity:1" />
    </g>
  </g>
  <g
     id="system-lock-screen"
     inkscape:label="#system-lock-screen"
     transform="matrix(2,0,0,2,-601.99518,830.0045)"
     style="display:inline;stroke-width:0.5;enable-background:new">
    <path
       style="color:#000000;display:inline;overflow:visible;visibility:visible;fill:#eaeaea;fill-opacity:1;fill-rule:nonzero;stroke:none;stroke-width:0.5;marker:none;enable-background:accumulate"
       d="m 232,53 c -2.216,0 -4,1.82162 -4,4.0625 V 59 h -2 v 8 h 12 v -8 h -2 V 57.0625 C 236,54.8225 234.216,53 232,53 Z m 0,2 c 1.108,0 2,0.892 2,2 v 2 h -4 v -2 c 0,-1.108 0.892,-2 2,-2 z"
       transform="translate(141.0002,-467)"
       id="path5739-9"
       inkscape:connector-curvature="0" />
    <rect
       clip-path="none"
       style="color:#bebebe;display:inline;overflow:visible;visibility:visible;fill:none;stroke:none;stroke-width:0.5;marker:none"
       id="rect5737-9"
       width="16"
       height="16"
       x="399.00336"
       y="364.99759"
       transform="rotate(-90)" />
  </g>
  <g
     style="display:inline;stroke-width:0.50000328;enable-background:new"
     id="system-reboot"
     inkscape:label="#system-reboot"
     transform="matrix(1.9999869,0,0,1.9999869,-1009.9938,-410.0552)">
    <rect
       y="-221.02794"
       x="-521.00031"
       height="16"
       width="16"
       id="rect6368"
       style="color:#bebebe;display:inline;overflow:visible;visibility:visible;fill:none;stroke:none;stroke-width:0.50000328;marker:none"
       transform="scale(-1)" />
    <path
       style="display:inline;fill:#eaeaea;fill-opacity:1;stroke:none;stroke-width:0.50000328;enable-background:new"
       d="m 513.0002,207 a 1,1 0 0 1 1,1 1,1 0 0 1 -1,1 4,4 0 0 0 -4,4 h 2 l -3,4 -3,-4 h 2 a 6,6 0 0 1 6,-6 z m 5,2 3,4 h -2 a 6,6 0 0 1 -6,6 1,1 0 0 1 -1,-1 1,1 0 0 1 1,-1 4,4 0 0 0 4,-4 h -2 z"
       id="path6366"
       inkscape:connector-curvature="0" />
  </g>
  <g
     style="display:inline;stroke-width:0.5;enable-background:new"
     id="system-shutdown"
     inkscape:label="#system-shutdown"
     transform="matrix(2,0,0,2,-618.00085,-41.995497)">
    <rect
       width="16"
       height="16"
       rx="0.14408804"
       ry="0.15129246"
       x="325.00043"
       y="20.996641"
       id="rect10837-3-0"
       style="color:#bebebe;display:inline;overflow:visible;visibility:visible;fill:none;stroke:none;stroke-width:0.5;marker:none;enable-background:new" />
    <rect
       style="color:#bebebe;fill:#eaeaea;fill-opacity:1;stroke:none;stroke-width:0.5"
       y="21.996639"
       x="332.0004"
       height="7.0033607"
       width="1.9998033"
       id="rect5820"
       rx="0"
       ry="0.0033607483" />
    <path
       d="m 335.51044,24.675793 a 5,5 0 0 1 2.32095,5.612507 5,5 0 0 1 -4.80736,3.711643 5,5 0 0 1 -4.8425,-3.665684 5,5 0 0 1 2.26738,-5.63436"
       sodipodi:end="4.1769018"
       sodipodi:start="5.238351"
       sodipodi:ry="5"
       sodipodi:rx="5"
       sodipodi:cy="29"
       sodipodi:cx="333.00021"
       sodipodi:type="arc"
       id="path6796-3"
       style="opacity:1;fill:none;fill-opacity:1;stroke:#eaeaea;stroke-width:2;stroke-linecap:butt;stroke-linejoin:round;stroke-miterlimit:4;stroke-dasharray:none;stroke-opacity:1"
       sodipodi:open="true" />
  </g>
  <g
     transform="matrix(0,2,-2,0,35.484808,-651.63019)"
     inkscape:label="#system-suspend"
     id="system-suspend"
     style="display:inline;stroke-width:0.5;enable-background:new">
    <rect
       style="color:#bebebe;display:inline;overflow:visible;visibility:visible;fill:none;stroke:none;stroke-width:0.5;marker:none;enable-background:new"
       id="rect910"
       y="20.996641"
       x="325.00043"
       ry="0.15129246"
       rx="0.14408804"
       height="16"
       width="16" />
    <rect
       ry="0.0033607483"
       rx="0"
       id="rect912"
       width="1.9998033"
       height="7.0033607"
       x="332.0004"
       y="21.996639"
       style="color:#bebebe;fill:#eaeaea;fill-opacity:1;stroke:none;stroke-width:0.5" />
    <path
       sodipodi:open="true"
       style="opacity:1;fill:none;fill-opacity:1;stroke:#eaeaea;stroke-width:2;stroke-linecap:butt;stroke-linejoin:round;stroke-miterlimit:4;stroke-dasharray:none;stroke-opacity:1"
       id="path914"
       sodipodi:type="arc"
       sodipodi:cx="333.00021"
       sodipodi:cy="29"
       sodipodi:rx="5"
       sodipodi:ry="5"
       sodipodi:start="5.238351"
       sodipodi:end="4.1769018"
       d="m 335.51044,24.675793 a 5,5 0 0 1 2.32095,5.612507 5,5 0 0 1 -4.80736,3.711643 5,5 0 0 1 -4.8425,-3.665684 5,5 0 0 1 2.26738,-5.63436" />
  </g>
  <g
     style="display:inline;stroke-width:0.50000668;enable-background:new"
     id="system-switch-user"
     inkscape:label="#system-switch-user"
     transform="matrix(1.9999733,0,0,1.9999733,-681.87273,-1018.0331)">
    <path
       inkscape:connector-curvature="0"
       id="path6174-9"
       d="m 435,512.94727 c -0.38828,0 -0.75331,0.0893 -1.08398,0.23828 0.0546,0.26205 0.084,0.53308 0.084,0.81054 0,1.10211 -0.45422,2.10419 -1.18359,2.83008 C 433.27673,517.52986 434.07945,518 435,518 c 1.43269,0 2.59375,-1.13026 2.59375,-2.52539 0,-1.39513 -1.16106,-2.52734 -2.59375,-2.52734 z M 435,519 c -0.1961,0 -0.37171,0.0126 -0.55273,0.0215 0.69756,0.39966 1.22911,0.87712 1.60351,1.37696 C 436.993,521.65577 437,523 437,523 h 3 v -1 c 0,0 0,-3 -5,-3 z m -3.90234,1.05078 C 430.00862,520.91597 430,522 430,522 v 1 h 5 c 0,0 0.007,-0.65725 -0.55078,-1.40234 -0.47711,-0.63695 -1.37024,-1.35218 -3.35156,-1.54688 z"
       style="color:#000000;font-style:normal;font-variant:normal;font-weight:normal;font-stretch:normal;font-size:medium;line-height:normal;font-family:Sans;-inkscape-font-specification:Sans;text-indent:0;text-align:start;text-decoration:none;text-decoration-line:none;letter-spacing:normal;word-spacing:normal;text-transform:none;writing-mode:lr-tb;direction:ltr;baseline-shift:baseline;text-anchor:start;display:inline;overflow:visible;visibility:visible;fill:#eaeaea;fill-opacity:1;stroke:none;stroke-width:1.00001335;marker:none;enable-background:accumulate" />
    <rect
       style="color:#bebebe;display:inline;overflow:visible;visibility:visible;fill:none;stroke:none;stroke-width:0.50000668;marker:none;enable-background:new"
       id="rect5535-4-1-6"
       width="16"
       height="16"
       x="424.00021"
       y="508.99664" />
    <path
       style="color:#000000;font-style:normal;font-variant:normal;font-weight:normal;font-stretch:normal;font-size:medium;line-height:normal;font-family:Sans;-inkscape-font-specification:Sans;text-indent:0;text-align:start;text-decoration:none;text-decoration-line:none;letter-spacing:normal;word-spacing:normal;text-transform:none;writing-mode:lr-tb;direction:ltr;baseline-shift:baseline;text-anchor:start;display:inline;overflow:visible;visibility:visible;fill:#eaeaea;fill-opacity:1;stroke:none;stroke-width:1.00001335;marker:none;enable-background:accumulate"
       d="m 430.00023,510.99664 c 1.65686,0 3,1.3432 3,3 0,1.6568 -1.34314,3 -3,3 -1.65686,0 -3,-1.3432 -3,-3 0,-1.6568 1.34314,-3 3,-3 z m 0,8 C 436,518.99364 436,523 436,523 v 1 h -12 v -1 c 0,0 0,-4 6.00023,-4.00336 z"
       id="path6174-8-0"
       inkscape:connector-curvature="0"
       sodipodi:nodetypes="ssssssccccs" />
  </g>
  <g
     id="system-log-out">
    <rect
       transform="rotate(90)"
       style="color:#bebebe;display:inline;overflow:visible;visibility:visible;fill:none;stroke:none;stroke-width:1;marker:none;enable-background:new"
       id="rect6332"
       y="-128"
       x="-0.0022138671"
       ry="0.30258492"
       rx="0.28817609"
       height="32"
       width="32" />
    <path
       style="color:#bebebe;display:inline;overflow:visible;visibility:visible;fill:#eaeaea;fill-opacity:1;fill-rule:nonzero;stroke:none;stroke-width:1;marker:none;enable-background:accumulate"
       d="m 119.99955,10.0045 8,6 -8,6 v -4 h -8 v -4 h 8 z"
       id="path7040-8"
       inkscape:connector-curvature="0"
       sodipodi:nodetypes="cccccccc" />
    <path
       id="path864"
       d="M 112 4 A 12 12 0 0 0 100 16 A 12 12 0 0 0 112 28 A 12 12 0 0 0 119.96289 24.962891 L 117.83789 22.837891 A 9 9 0 0 1 112 25 A 9 9 0 0 1 103 16 A 9 9 0 0 1 112 7 A 9 9 0 0 1 117.8418 9.1582031 L 119.96094 7.0390625 A 12 12 0 0 0 112 4 z "
       style="opacity:1;fill:#eaeaea;fill-opacity:1;fill-rule:evenodd;stroke:none;stroke-width:3;stroke-linecap:round;stroke-linejoin:round;stroke-miterlimit:4;stroke-dasharray:none;stroke-opacity:1;paint-order:fill markers stroke" />
  </g>
</svg>
