<?xml version="1.0" encoding="UTF-8" standalone="no"?>
<svg
   xmlns:dc="http://purl.org/dc/elements/1.1/"
   xmlns:cc="http://creativecommons.org/ns#"
   xmlns:rdf="http://www.w3.org/1999/02/22-rdf-syntax-ns#"
   xmlns:svg="http://www.w3.org/2000/svg"
   xmlns="http://www.w3.org/2000/svg"
   xmlns:sodipodi="http://sodipodi.sourceforge.net/DTD/sodipodi-0.dtd"
   xmlns:inkscape="http://www.inkscape.org/namespaces/inkscape"
   width="32"
   height="32"
   version="1.1"
   id="svg12"
   sodipodi:docname="view.svg"
   inkscape:version="0.92.4 (5da689c313, 2019-01-14)">
  <metadata
     id="metadata16">
    <rdf:RDF>
      <cc:Work
         rdf:about="">
        <dc:format>image/svg+xml</dc:format>
        <dc:type
           rdf:resource="http://purl.org/dc/dcmitype/StillImage" />
      </cc:Work>
    </rdf:RDF>
  </metadata>
  <sodipodi:namedview
     pagecolor="#ffffff"
     bordercolor="#666666"
     borderopacity="1"
     objecttolerance="10"
     gridtolerance="10"
     guidetolerance="10"
     inkscape:pageopacity="0"
     inkscape:pageshadow="2"
     inkscape:window-width="1366"
     inkscape:window-height="704"
     id="namedview14"
     showgrid="true"
     inkscape:zoom="7.375"
     inkscape:cx="39.193993"
     inkscape:cy="22.677271"
     inkscape:window-x="0"
     inkscape:window-y="0"
     inkscape:window-maximized="1"
     inkscape:current-layer="svg12"
     inkscape:snap-smooth-nodes="true"
     inkscape:snap-midpoints="true">
    <inkscape:grid
       type="xygrid"
       id="grid818" />
  </sodipodi:namedview>
  <defs
     id="defs7386">
    <style
       id="current-color-scheme"
       type="text/css">
   .ColorScheme-Text { color:#dedede; } .ColorScheme-Highlight { color:#5294e2; } .ColorScheme-ButtonBackground { color:#dedede; }
  </style>
  </defs>
  <g
     id="view-refresh"
     inkscape:label="#view-refresh"
     transform="matrix(0,-1,-1,0,-218.83652,494.55962)"
     style="display:inline;enable-background:new">
    <rect
       y="258.97211"
       x="-481.00031"
       height="16"
       width="16"
       id="rect6692"
       style="color:#bebebe;display:inline;overflow:visible;visibility:visible;fill:none;stroke:none;stroke-width:1;marker:none"
       transform="scale(-1)" />
    <path
       style="opacity:1;fill:#eaeaea;fill-opacity:1;stroke:none;stroke-width:2;stroke-linecap:square;stroke-linejoin:miter;stroke-miterlimit:4;stroke-dasharray:none;stroke-opacity:1"
       d="M 252.0625,598.01758 248.5,601 l 3.56055,3.01758 v -2 c 2.20914,0 4,1.79086 4,4 0,2.20914 -1.79086,4 -4,4 -2.20914,0 -4,-1.79086 -4,-4 0,-0.006 -0.004,-0.0113 -0.004,-0.0176 h -1.99219 c -1.1e-4,0.006 -0.004,0.0113 -0.004,0.0176 0,0.0333 0.004,0.0665 0.008,0.0996 0.0538,3.26723 2.71408,5.90039 5.99414,5.90039 3.31371,0 6,-2.68629 6,-6 0,-3.31371 -2.68629,-6 -6,-6 v -2 z"
       transform="matrix(0,-1,-1,0,1079.0178,-14.93835)"
       id="path6694-3"
       inkscape:connector-curvature="0" />
  </g>
  <g
     id="view-history">
    <rect
       ry="3.0127659"
       rx="2.9623332"
       y="-2.5943515e-07"
       x="0"
       height="32"
       width="32"
       id="rect872"
       style="opacity:0;fill:#eaeaea;fill-opacity:1;fill-rule:evenodd;stroke:none;stroke-width:4;stroke-linecap:round;stroke-linejoin:round;stroke-miterlimit:4;stroke-dasharray:none;stroke-opacity:1;paint-order:fill markers stroke" />
    <g
       id="g843">
      <path
         style="opacity:1;fill:#eaeaea;fill-opacity:1;fill-rule:evenodd;stroke:none;stroke-width:4;stroke-linecap:round;stroke-linejoin:round;stroke-miterlimit:4;stroke-dasharray:none;stroke-opacity:1;paint-order:fill markers stroke"
         d="M 17,4 A 12,12 0 0 0 5,16 h 3 a 9,9 0 0 1 9,-9 9,9 0 0 1 9,9 9,9 0 0 1 -9,9 v 3 A 12,12 0 0 0 29,16 12,12 0 0 0 17,4 Z"
         id="path822-3"
         inkscape:connector-curvature="0" />
      <path
         style="opacity:1;fill:#e6e6e6;fill-opacity:1;fill-rule:evenodd;stroke:none;stroke-width:4;stroke-linecap:round;stroke-linejoin:round;stroke-miterlimit:4;stroke-dasharray:none;stroke-opacity:1;paint-order:fill markers stroke"
         d="m 2,16 h 9 l -4.4554297,7 v 0 z"
         id="rect830-6"
         inkscape:connector-curvature="0"
         sodipodi:nodetypes="ccccc" />
      <rect
         style="opacity:1;fill:#eaeaea;fill-opacity:1;fill-rule:evenodd;stroke:none;stroke-width:4;stroke-linecap:round;stroke-linejoin:round;stroke-miterlimit:4;stroke-dasharray:none;stroke-opacity:1;paint-order:fill markers stroke"
         id="rect833-7"
         width="2"
         height="6"
         x="16"
         y="11"
         rx="0"
         ry="0" />
      <rect
         ry="0"
         rx="0"
         y="-28.356407"
         x="4.7224317"
         height="6"
         width="2"
         id="rect837-5"
         style="opacity:1;fill:#eaeaea;fill-opacity:1;fill-rule:evenodd;stroke:none;stroke-width:4;stroke-linecap:round;stroke-linejoin:round;stroke-miterlimit:4;stroke-dasharray:none;stroke-opacity:1;paint-order:fill markers stroke"
         transform="rotate(120)" />
    </g>
  </g>
</svg>
