<?xml version="1.0" encoding="UTF-8" standalone="no"?>
<svg
   xmlns:dc="http://purl.org/dc/elements/1.1/"
   xmlns:cc="http://creativecommons.org/ns#"
   xmlns:rdf="http://www.w3.org/1999/02/22-rdf-syntax-ns#"
   xmlns:svg="http://www.w3.org/2000/svg"
   xmlns="http://www.w3.org/2000/svg"
   xmlns:sodipodi="http://sodipodi.sourceforge.net/DTD/sodipodi-0.dtd"
   xmlns:inkscape="http://www.inkscape.org/namespaces/inkscape"
   id="svg2"
   width="22"
   height="22"
   version="1.1"
   sodipodi:docname="computer.svg"
   inkscape:version="0.92.4 5da689c313, 2019-01-14">
  <metadata
     id="metadata28">
    <rdf:RDF>
      <cc:Work
         rdf:about="">
        <dc:format>image/svg+xml</dc:format>
        <dc:type
           rdf:resource="http://purl.org/dc/dcmitype/StillImage" />
      </cc:Work>
    </rdf:RDF>
  </metadata>
  <sodipodi:namedview
     pagecolor="#ffffff"
     bordercolor="#666666"
     borderopacity="1"
     objecttolerance="10"
     gridtolerance="10"
     guidetolerance="10"
     inkscape:pageopacity="0"
     inkscape:pageshadow="2"
     inkscape:window-width="1366"
     inkscape:window-height="711"
     id="namedview26"
     showgrid="true"
     inkscape:snap-bbox="true"
     inkscape:bbox-nodes="true"
     inkscape:snap-bbox-edge-midpoints="true"
     inkscape:snap-nodes="true"
     inkscape:snap-smooth-nodes="true"
     inkscape:zoom="21.454546"
     inkscape:cx="11.258447"
     inkscape:cy="32.575832"
     inkscape:window-x="0"
     inkscape:window-y="0"
     inkscape:window-maximized="1"
     inkscape:current-layer="svg2">
    <inkscape:grid
       type="xygrid"
       id="grid859" />
  </sodipodi:namedview>
  <defs
     id="defs7386">
    <style
       id="current-color-scheme"
       type="text/css">
   .ColorScheme-Text { color:#dedede; } .ColorScheme-Highlight { color:#5294e2; } .ColorScheme-ButtonBackground { color:#dedede; }
  </style>
  </defs>
  <g
     id="16-16-computer"
     inkscape:label="#16-16-computer"
     transform="matrix(-1,0,0,1,399.0004,330.99994)"
     style="display:inline;filter:url(#filter7554);enable-background:new">
    <rect
       y="-302.99994"
       x="381.0004"
       height="16"
       width="16"
       id="rect10767"
       style="color:#bebebe;display:inline;overflow:visible;visibility:visible;fill:none;stroke:none;stroke-width:2;marker:none;enable-background:accumulate" />
    <rect
       y="-302.99994"
       x="381.0004"
       height="16"
       width="16"
       id="rect10769"
       style="color:#bebebe;display:inline;overflow:visible;visibility:visible;opacity:0;fill:none;stroke:none;stroke-width:3;marker:none;enable-background:accumulate" />
    <path
       style="fill:#eaeaea;fill-opacity:1;stroke:none"
       d="m 101.00021,397.00336 c -1,0 -1,1 -1,1 v 10 c 0,0 0,1 1,1 h 14 c 0,0 1,0 1,-1 v -10 c 0,0 0,-1 -1,-1 z m 0.99959,2 h 12 l 4.1e-4,8 -12,-0.024 z m 3.00041,11 2e-4,0.99664 h 6 l -2e-4,-0.99664 c 0,-1 -1,-1 -1,-1 h -4.02177 c 0,0 -0.97823,0 -0.97823,1 z"
       transform="translate(281.00019,-699)"
       id="path10771"
       inkscape:connector-curvature="0"
       sodipodi:nodetypes="sccscccsscccccccccccc" />
  </g>
  <g
     id="22-22-computer"
     transform="translate(13.000003,-45.999997)">
    <rect
       transform="scale(-1,1)"
       style="color:#bebebe;display:inline;overflow:visible;visibility:visible;opacity:0;fill:#b3b3b3;stroke:none;stroke-width:2;marker:none;enable-background:accumulate"
       id="rect861"
       width="21.999994"
       height="21.999994"
       x="-8.9999943"
       y="46" />
    <path
       sodipodi:nodetypes="sccscccsscccccccccccc"
       inkscape:connector-curvature="0"
       id="path865"
       d="m 6.7500048,48 c 1.2499984,0 1.2499984,1.286021 1.2499984,1.286021 v 12.427958 c 0,0 0,1.286021 -1.2499984,1.286021 H -10.750001 C -10.750001,63 -12,63 -12,61.713979 V 49.286021 C -12,49.286021 -12,48 -10.750001,48 Z M 6,50 H -10 V 61 H 6 Z M 1.999997,64.421669 1.9997495,66 h -8.0000137 l 2.612e-4,-1.578331 C -6.000003,63.135647 -4.7500045,63 -4.7500045,63 h 5.5272143 c 0,0 1.2227872,0.135647 1.2227872,1.421669 z"
       style="fill:#eaeaea;fill-opacity:1;stroke:none;stroke-width:1" />
  </g>
  <g
     id="computer"
     transform="translate(-86.000013,-48)">
    <rect
       transform="scale(-1,1)"
       style="color:#bebebe;display:inline;overflow:visible;visibility:visible;opacity:0;fill:#999999;stroke:none;stroke-width:2;marker:none;enable-background:accumulate"
       id="rect876"
       width="31.999994"
       height="31.999994"
       x="-115.00001"
       y="8.9934034" />
    <rect
       transform="scale(-1,1)"
       style="color:#bebebe;display:inline;overflow:visible;visibility:visible;opacity:0;fill:#999999;stroke:none;stroke-width:3;marker:none;enable-background:accumulate"
       id="rect878"
       width="31.999994"
       height="31.999994"
       x="-115.00001"
       y="8.9934034" />
    <path
       sodipodi:nodetypes="sccscccsscccccccccccc"
       inkscape:connector-curvature="0"
       id="path880"
       d="m 111.25001,14 c 1.75,0 1.75,1.714697 1.75,1.714697 v 17.570607 c 0,0 0,1.714696 -1.75,1.714696 H 86.750013 c 0,0 -1.75,0 -1.75,-1.714696 V 15.714697 c 0,0 0,-1.714697 1.75,-1.714697 z m -1.25,3 H 88.000013 v 15 h 21.999997 z m -5,19.714698 L 104.99966,38 H 92.999663 l 3.5e-4,-1.285302 c 0,-1.714698 2,-1.714698 2,-1.714698 h 8.038087 c 0,0 1.96191,0 1.96191,1.714698 z"
       style="fill:#eaeaea;fill-opacity:1;stroke:none;stroke-width:1" />
  </g>
  <g
     transform="translate(-41.5,-48)"
     id="g844">
    <rect
       y="8.9934034"
       x="-115.00001"
       height="31.999994"
       width="31.999994"
       id="rect838"
       style="color:#bebebe;display:inline;overflow:visible;visibility:visible;opacity:0;fill:#999999;stroke:none;stroke-width:2;marker:none;enable-background:accumulate"
       transform="scale(-1,1)" />
    <rect
       y="8.9934034"
       x="-115.00001"
       height="31.999994"
       width="31.999994"
       id="rect840"
       style="color:#bebebe;display:inline;overflow:visible;visibility:visible;opacity:0;fill:#999999;stroke:none;stroke-width:3;marker:none;enable-background:accumulate"
       transform="scale(-1,1)" />
  </g>
  <g
     style="display:inline;filter:url(#filter7554);enable-background:new"
     transform="matrix(-1,0,0,1,450.0004,330.99664)"
     inkscape:label="#16-16-computer-laptop"
     id="16-16-computer-laptop">
    <rect
       style="color:#bebebe;display:inline;overflow:visible;visibility:visible;fill:none;stroke:none;stroke-width:2;marker:none;enable-background:accumulate"
       id="rect846"
       width="16"
       height="16"
       x="381.0004"
       y="-302.99994" />
    <rect
       style="color:#bebebe;display:inline;overflow:visible;visibility:visible;opacity:0;fill:none;stroke:none;stroke-width:3;marker:none;enable-background:accumulate"
       id="rect848"
       width="16"
       height="16"
       x="381.0004"
       y="-302.99994" />
    <path
       sodipodi:nodetypes="sccscccsscccccccccc"
       inkscape:connector-curvature="0"
       id="path850"
       transform="translate(281.00019,-699)"
       d="m 101.00021,397.00336 c -1,0 -1,1 -1,1 v 10 c 0,0 0,1 1,1 h 14 c 0,0 1,0 1,-1 v -10 c 0,0 0,-1 -1,-1 z m 0.99959,2 h 12 l 4.1e-4,8 -12,-0.024 z m -1.99959,11 h 16 c 0,-1 -1,-1 -1,-1 h -14.02177 c 0,0 -0.97823,0 -0.97823,1 z"
       style="fill:#eaeaea;fill-opacity:1;stroke:none" />
  </g>
  <g
     transform="translate(64.000003,-45.999994)"
     id="22-22-computer-laptop">
    <rect
       y="46"
       x="-8.9999943"
       height="21.999994"
       width="21.999994"
       id="rect854"
       style="color:#bebebe;display:inline;overflow:visible;visibility:visible;opacity:0;fill:#b3b3b3;stroke:none;stroke-width:2;marker:none;enable-background:accumulate"
       transform="scale(-1,1)" />
    <path
       style="fill:#eaeaea;fill-opacity:1;stroke:none;stroke-width:1"
       d="m 6.7500048,48 c 1.2499984,0 1.2499984,1.286021 1.2499984,1.286021 v 12.427958 c 0,0 0,1.286021 -1.2499984,1.286021 H -10.750001 C -10.750001,63 -12,63 -12,61.713979 V 49.286021 C -12,49.286021 -12,48 -10.750001,48 Z M 6,50 H -10 V 61 H 6 Z m 2.999997,13.999994 -2.475e-4,1 H -13.000264 l 2.61e-4,-1 C -13.000003,62.713972 -11.750005,63 -11.750005,63 H 7.7772098 c 0,0 1.2227872,-0.286028 1.2227872,0.999994 z"
       id="path856"
       inkscape:connector-curvature="0"
       sodipodi:nodetypes="sccscccsscccccccccccc" />
  </g>
  <g
     transform="translate(-34.000008,-48)"
     id="computer-laptop">
    <rect
       y="8.9934034"
       x="-115.00001"
       height="31.999994"
       width="31.999994"
       id="rect860"
       style="color:#bebebe;display:inline;overflow:visible;visibility:visible;opacity:0;fill:#999999;stroke:none;stroke-width:2;marker:none;enable-background:accumulate"
       transform="scale(-1,1)" />
    <rect
       y="8.9934034"
       x="-115.00001"
       height="31.999994"
       width="31.999994"
       id="rect862"
       style="color:#bebebe;display:inline;overflow:visible;visibility:visible;opacity:0;fill:#999999;stroke:none;stroke-width:3;marker:none;enable-background:accumulate"
       transform="scale(-1,1)" />
    <path
       style="fill:#eaeaea;fill-opacity:1;stroke:none;stroke-width:1"
       d="m 110.21192,15 c 1.75,0 1.75,1.714697 1.75,1.714697 v 15.570607 c 0,0 0,1.714696 -1.75,1.714696 H 86.750008 c 0,0 -0.75,0 -0.75,-1.714696 V 16.714697 c 0,0 0,-1.714697 1.75,-1.714697 z m -0.25,2 H 88.000008 v 15 h 21.961912 z m 3.03809,18 -3.5e-4,1 H 84.999658 l 3.5e-4,-1 c 0,-1.714698 3,-1 3,-1 h 22.000002 c 0,0 3,-0.714698 3,1 z"
       id="path864"
       inkscape:connector-curvature="0"
       sodipodi:nodetypes="sccscccsscccccccccccc" />
  </g>
</svg>
