<?xml version="1.0" encoding="UTF-8" standalone="no"?>
<svg
   xmlns:dc="http://purl.org/dc/elements/1.1/"
   xmlns:cc="http://creativecommons.org/ns#"
   xmlns:rdf="http://www.w3.org/1999/02/22-rdf-syntax-ns#"
   xmlns:svg="http://www.w3.org/2000/svg"
   xmlns="http://www.w3.org/2000/svg"
   xmlns:xlink="http://www.w3.org/1999/xlink"
   xmlns:sodipodi="http://sodipodi.sourceforge.net/DTD/sodipodi-0.dtd"
   xmlns:inkscape="http://www.inkscape.org/namespaces/inkscape"
   width="172"
   height="56"
   version="1.1"
   viewBox="0 0 45.508 14.817"
   id="svg199"
   sodipodi:docname="panel-background.svg"
   inkscape:version="0.92.4 (5da689c313, 2019-01-14)">
  <metadata
     id="metadata203">
    <rdf:RDF>
      <cc:Work
         rdf:about="">
        <dc:format>image/svg+xml</dc:format>
        <dc:type
           rdf:resource="http://purl.org/dc/dcmitype/StillImage" />
      </cc:Work>
    </rdf:RDF>
  </metadata>
  <sodipodi:namedview
     pagecolor="#ffffff"
     bordercolor="#666666"
     borderopacity="1"
     objecttolerance="10"
     gridtolerance="10"
     guidetolerance="10"
     inkscape:pageopacity="0"
     inkscape:pageshadow="2"
     inkscape:window-width="1366"
     inkscape:window-height="718"
     id="namedview201"
     showgrid="false"
     inkscape:zoom="6.9534884"
     inkscape:cx="24.448399"
     inkscape:cy="24.751614"
     inkscape:window-x="0"
     inkscape:window-y="24"
     inkscape:window-maximized="1"
     inkscape:current-layer="svg199" />
  <defs
     id="defs23">
    <linearGradient
       id="a">
      <stop
         stop-opacity=".66663"
         offset="0"
         id="stop2" />
      <stop
         stop-opacity="0"
         offset="1"
         id="stop4" />
    </linearGradient>
    <linearGradient
       id="b"
       x1="-912.36"
       x2="-906.36"
       y1="-35"
       y2="-35"
       gradientUnits="userSpaceOnUse"
       xlink:href="#a" />
    <linearGradient
       id="c"
       x1="15"
       x2="9"
       y1="12"
       y2="12"
       gradientUnits="userSpaceOnUse"
       xlink:href="#a" />
    <radialGradient
       id="n"
       cx="22.2"
       cy="913.97"
       r="6"
       gradientTransform="rotate(270 -405.39 435.59)"
       gradientUnits="userSpaceOnUse"
       xlink:href="#a" />
    <linearGradient
       id="d"
       x1="19"
       x2="19"
       y1="8"
       y2="2"
       gradientTransform="translate(58)"
       gradientUnits="userSpaceOnUse"
       xlink:href="#a" />
    <linearGradient
       id="e"
       x1="55"
       x2="61"
       y1="12"
       y2="12"
       gradientUnits="userSpaceOnUse"
       xlink:href="#a" />
    <radialGradient
       id="o"
       cx="53.893"
       cy="911.76"
       r="6"
       gradientTransform="translate(59.107,-903.77)"
       gradientUnits="userSpaceOnUse"
       xlink:href="#a" />
    <linearGradient
       id="f"
       x1="51"
       x2="51"
       y1="8"
       y2="2"
       gradientTransform="translate(58)"
       gradientUnits="userSpaceOnUse"
       xlink:href="#a" />
    <linearGradient
       id="g"
       x1="952.36"
       x2="958.36"
       y1="-35"
       y2="-35"
       gradientUnits="userSpaceOnUse"
       xlink:href="#a" />
    <linearGradient
       id="h"
       x1="19"
       x2="19"
       y1="48"
       y2="54"
       gradientTransform="translate(58)"
       gradientUnits="userSpaceOnUse"
       xlink:href="#a" />
    <radialGradient
       id="p"
       cx="7.6429"
       cy="950.36"
       r="6"
       gradientTransform="rotate(180 40.321 499.18)"
       gradientUnits="userSpaceOnUse"
       xlink:href="#a" />
    <linearGradient
       id="i"
       x1="15"
       x2="9"
       y1="44"
       y2="44"
       gradientUnits="userSpaceOnUse"
       xlink:href="#a" />
    <linearGradient
       id="j"
       x1="51"
       x2="51"
       y1="48"
       y2="54"
       gradientTransform="translate(58)"
       gradientUnits="userSpaceOnUse"
       xlink:href="#a" />
    <radialGradient
       id="q"
       cx="54.25"
       cy="945.11"
       r="6"
       gradientTransform="matrix(2.1666e-7 1 -.99999 2.1665e-7 1058.1 -6.2502)"
       gradientUnits="userSpaceOnUse"
       xlink:href="#a" />
    <linearGradient
       id="k"
       x1="55"
       x2="61"
       y1="44"
       y2="44"
       gradientUnits="userSpaceOnUse"
       xlink:href="#a" />
    <linearGradient
       id="l"
       x1="-15"
       x2="-9"
       y1="932.36"
       y2="932.36"
       gradientUnits="userSpaceOnUse"
       xlink:href="#a" />
    <linearGradient
       id="m"
       x1="55"
       x2="61"
       y1="932.36"
       y2="932.36"
       gradientUnits="userSpaceOnUse"
       xlink:href="#a" />
  </defs>
  <g
     transform="translate(0 -282.18)"
     id="g197">
    <rect
       id="hint-tile-center"
       y="282.18"
       width="1.3229"
       height="1.3229"
       fill="#f60"
       stroke-width=".26458" />
    <g
       id="top"
       transform="matrix(.26458 0 0 .26458 -1.3698 42.905)">
      <rect
         class="ColorScheme-Background"
         transform="matrix(0,-1,-1,0,0,0)"
         x="-916.36"
         y="-51"
         width="6"
         height="32"
         color="#eff0f1"
         fill="#222"
         opacity=".9"
         id="rect26"
         style="opacity:0.8" />
    </g>
    <g
       id="topleft"
       transform="matrix(.26458 0 0 .26458 -1.3698 42.905)">
      <path
         class="ColorScheme-Background"
         transform="translate(0,904.36)"
         d="m14 6c-0.55399 0-1 0.44601-1 1v5h6v-6h-2z"
         color="#eff0f1"
         fill="#222"
         opacity=".9"
         id="path29"
         style="opacity:0.8" />
    </g>
    <g
       id="topright"
       transform="matrix(.26458 0 0 .26458 -1.3698 42.905)">
      <path
         class="ColorScheme-Background"
         transform="translate(0,904.36)"
         d="m51 6v6h6v-5c0-0.55399-0.44601-1-1-1h-4z"
         color="#eff0f1"
         fill="#222"
         opacity=".9"
         id="path32"
         style="opacity:0.8" />
    </g>
    <g
       id="bottom"
       transform="matrix(.26458 0 0 .26458 -1.3698 42.905)">
      <rect
         class="ColorScheme-Background"
         transform="rotate(90)"
         x="948.36"
         y="-51"
         width="6"
         height="32"
         color="#eff0f1"
         fill="#222"
         opacity=".9"
         id="rect35"
         style="opacity:0.8" />
    </g>
    <g
       id="bottomleft"
       transform="matrix(.26458 0 0 .26458 -1.3698 42.905)">
      <path
         class="ColorScheme-Background"
         d="m19 954.36v-6h-6v5c0 0.55399 0.44601 1 1 1h4z"
         color="#eff0f1"
         fill="#222"
         opacity=".9"
         id="path38"
         style="opacity:0.8" />
    </g>
    <g
       id="bottomright"
       transform="matrix(.26458 0 0 .26458 -1.3698 42.905)">
      <path
         class="ColorScheme-Background"
         d="m51 954.36v-6h6v5c0 0.55399-0.44601 1-1 1h-4z"
         color="#eff0f1"
         fill="#222"
         opacity=".9"
         id="path41"
         style="opacity:0.8" />
    </g>
    <g
       id="left"
       transform="matrix(.26458 0 0 .26458 -1.3698 42.905)">
      <rect
         class="ColorScheme-Background"
         transform="scale(-1,1)"
         x="-19"
         y="916.36"
         width="6"
         height="32"
         color="#eff0f1"
         fill="#222"
         opacity=".9"
         id="rect44"
         style="opacity:0.8" />
    </g>
    <g
       id="right"
       transform="matrix(.26458 0 0 .26458 -1.3698 42.905)">
      <rect
         class="ColorScheme-Background"
         x="51"
         y="916.36"
         width="6"
         height="32"
         color="#eff0f1"
         fill="#222"
         opacity=".9"
         id="rect47"
         style="opacity:0.8" />
    </g>
    <g
       id="center"
       transform="matrix(.26458 0 0 .26458 -1.3698 42.905)">
      <rect
         x="19"
         y="916.36"
         width="32"
         height="32"
         fill="none"
         id="rect50" />
      <rect
         class="ColorScheme-Background"
         x="19"
         y="916.36"
         width="32"
         height="32"
         color="#eff0f1"
         fill="#222"
         opacity=".9"
         id="rect52"
         style="opacity:0.8" />
    </g>
    <g
       transform="matrix(.26458 0 0 .26458 -1.3698 42.905)"
       fill="#f0f"
       id="g59">
      <rect
         id="hint-top-margin"
         x="33"
         y="910.36"
         width="4"
         height="2" />
      <rect
         id="hint-bottom-margin"
         x="33"
         y="952.36"
         width="4"
         height="2" />
      <rect
         id="hint-right-margin"
         transform="rotate(90)"
         x="930.36"
         y="-57"
         width="4"
         height="2" />
      <rect
         id="hint-left-margin"
         transform="rotate(90)"
         x="930.36"
         y="-15"
         width="4"
         height="2" />
    </g>
    <g
       id="mask-top"
       transform="matrix(.26458 0 0 .26458 29.322 42.905)">
      <rect
         transform="matrix(0,-1,-1,0,0,0)"
         x="-915.36"
         y="-51"
         width="5"
         height="32"
         opacity=".97"
         id="rect61" />
    </g>
    <g
       id="mask-topleft"
       transform="matrix(.26458 0 0 .26458 29.322 42.905)">
      <path
         transform="translate(-116,904.36)"
         d="m130 6c-0.55399 0-1 0.44601-1 1v4h5v-5h-1z"
         opacity=".97"
         id="path64" />
    </g>
    <g
       id="mask-topright"
       transform="matrix(.26458 0 0 .26458 29.322 42.905)">
      <path
         transform="translate(-116,904.36)"
         d="m168 6v5h5v-4c0-0.55399-0.44601-1-1-1h-3z"
         opacity=".97"
         id="path67" />
    </g>
    <g
       id="mask-bottom"
       transform="matrix(.26458 0 0 .26458 29.322 42.905)">
      <rect
         transform="rotate(90)"
         x="949.36"
         y="-51"
         width="5"
         height="32"
         opacity=".97"
         id="rect70" />
    </g>
    <g
       id="mask-bottomleft"
       transform="matrix(.26458 0 0 .26458 29.322 42.905)">
      <path
         transform="translate(-116,904.36)"
         d="m129 45v4c0 0.55399 0.44601 1 1 1h4v-5z"
         opacity=".97"
         id="path73" />
    </g>
    <g
       id="mask-bottomright"
       transform="matrix(.26458 0 0 .26458 29.322 42.905)">
      <path
         transform="translate(-116,904.36)"
         d="m168 45v5h4c0.55399 0 1-0.44601 1-1v-4z"
         opacity=".97"
         id="path76" />
    </g>
    <g
       id="mask-left"
       transform="matrix(.26458 0 0 .26458 29.322 42.905)">
      <rect
         transform="scale(-1,1)"
         x="-18"
         y="916.36"
         width="5"
         height="32"
         opacity=".97"
         id="rect79" />
    </g>
    <g
       id="mask-right"
       transform="matrix(.26458 0 0 .26458 29.322 42.905)">
      <rect
         x="52"
         y="916.36"
         width="5"
         height="32"
         opacity=".97"
         id="rect82" />
    </g>
    <g
       id="mask-center"
       transform="matrix(.26458 0 0 .26458 29.322 42.905)">
      <rect
         x="19"
         y="916.36"
         width="32"
         height="32"
         fill="none"
         id="rect85" />
      <rect
         x="19"
         y="916.36"
         width="32"
         height="32"
         opacity=".97"
         id="rect87" />
    </g>
    <g
       id="shadow-top"
       transform="matrix(.26458 0 0 .26458 13.976 42.905)">
      <rect
         transform="matrix(0,-1,-1,0,0,0)"
         x="-916.36"
         y="-51"
         width="6"
         height="32"
         fill="none"
         id="rect90" />
      <rect
         transform="matrix(0,-1,-1,0,0,0)"
         x="-910.36"
         y="-51"
         width="6"
         height="32"
         fill="url(#b)"
         opacity=".9"
         id="rect92" />
      <rect
         transform="matrix(0,-1,-1,0,0,0)"
         x="-911.36"
         y="-51"
         width=".99998"
         height="32"
         fill="none"
         id="rect94" />
    </g>
    <g
       id="shadow-topleft"
       transform="matrix(.26458 0 0 .26458 13.976 42.905)">
      <g
         fill-rule="evenodd"
         id="g103">
        <path
           transform="translate(0,904.36)"
           d="m7 7v5h6v-5z"
           fill="url(#c)"
           opacity=".9"
           id="path97" />
        <path
           transform="translate(-58,904.36)"
           d="m65 0v7h6c0-1 1-1 1-1v-6z"
           fill="url(#n)"
           id="path99" />
        <path
           transform="translate(-58,904.36)"
           d="m72 0v6h5v-6h-4z"
           fill="url(#d)"
           opacity=".9"
           id="path101" />
      </g>
      <g
         fill="none"
         id="g111">
        <rect
           transform="scale(-1,1)"
           x="-19"
           y="910.36"
           width="6"
           height="6"
           ry=".99998"
           id="rect105" />
        <rect
           transform="scale(-1,1)"
           x="-19"
           y="910.36"
           width="2"
           height="6"
           ry="0"
           id="rect107" />
        <rect
           transform="scale(-1,1)"
           x="-18"
           y="914.36"
           width="5"
           height="2"
           id="rect109" />
      </g>
    </g>
    <g
       id="shadow-topright"
       transform="matrix(.26458 0 0 .26458 13.976 42.905)">
      <g
         fill-rule="evenodd"
         id="g120">
        <path
           transform="translate(0,904.36)"
           d="m57 7v5h6v-5z"
           fill="url(#e)"
           opacity=".9"
           id="path114" />
        <path
           transform="translate(-58,904.36)"
           d="m114 0v6s1 0 1 1h6v-7z"
           fill="url(#o)"
           id="path116" />
        <path
           transform="translate(-58,904.36)"
           d="m109 0v6h5v-6h-1z"
           fill="url(#f)"
           opacity=".9"
           id="path118" />
      </g>
      <g
         fill="none"
         id="g128">
        <rect
           x="51"
           y="910.36"
           width="6"
           height="6"
           ry=".99998"
           id="rect122" />
        <rect
           x="51"
           y="910.36"
           width="2"
           height="6"
           ry="0"
           id="rect124" />
        <rect
           x="52"
           y="914.36"
           width="5"
           height="2"
           id="rect126" />
      </g>
    </g>
    <g
       id="shadow-bottom"
       transform="matrix(.26458 0 0 .26458 13.976 42.905)">
      <rect
         transform="rotate(90)"
         x="948.36"
         y="-51"
         width="6"
         height="32"
         fill="none"
         id="rect131" />
      <rect
         transform="rotate(90)"
         x="954.36"
         y="-51"
         width="6"
         height="32"
         fill="url(#g)"
         opacity=".9"
         id="rect133" />
      <rect
         transform="rotate(90)"
         x="953.36"
         y="-51"
         width="1"
         height="32"
         fill="none"
         id="rect135" />
    </g>
    <g
       id="shadow-bottomleft"
       transform="matrix(.26458 0 0 .26458 13.976 42.905)">
      <g
         fill-rule="evenodd"
         id="g144">
        <path
           transform="translate(-58,904.36)"
           d="m72 50v6h5v-6h-4z"
           fill="url(#h)"
           opacity=".9"
           id="path138" />
        <path
           transform="translate(-58,904.36)"
           d="m65 49v7h7v-6c-1 0-1-1-1-1z"
           fill="url(#p)"
           id="path140" />
        <path
           transform="translate(0,904.36)"
           d="m7 44v5h6v-5z"
           fill="url(#i)"
           opacity=".9"
           id="path142" />
      </g>
      <g
         fill="none"
         id="g152">
        <rect
           transform="scale(-1)"
           x="-19"
           y="-954.36"
           width="6"
           height="6"
           ry=".99972"
           id="rect146" />
        <rect
           transform="scale(-1)"
           x="-19"
           y="-954.36"
           width="2"
           height="6"
           ry="0"
           id="rect148" />
        <rect
           transform="scale(-1)"
           x="-18"
           y="-950.36"
           width="5"
           height="2"
           id="rect150" />
      </g>
    </g>
    <g
       id="shadow-bottomright"
       transform="matrix(.26458 0 0 .26458 13.976 42.905)">
      <g
         fill-rule="evenodd"
         id="g161">
        <path
           transform="translate(-58,904.36)"
           d="m109 50v6h5v-6h-1z"
           fill="url(#j)"
           opacity=".9"
           id="path155" />
        <path
           transform="translate(-58,904.36)"
           d="m115 49s0 1-1 1v6h7v-7z"
           fill="url(#q)"
           id="path157" />
        <path
           transform="translate(0,904.36)"
           d="m57 44v5h6v-5z"
           fill="url(#k)"
           opacity=".9"
           id="path159" />
      </g>
      <g
         fill="none"
         id="g169">
        <rect
           transform="scale(1,-1)"
           x="51"
           y="-954.36"
           width="6"
           height="6"
           ry=".99972"
           id="rect163" />
        <rect
           transform="scale(1,-1)"
           x="51"
           y="-954.36"
           width="2"
           height="6"
           ry="0"
           id="rect165" />
        <rect
           transform="scale(1,-1)"
           x="52"
           y="-950.36"
           width="5"
           height="2"
           id="rect167" />
      </g>
    </g>
    <g
       id="shadow-left"
       transform="matrix(.26458 0 0 .26458 13.976 42.905)">
      <rect
         transform="scale(-1,1)"
         x="-19"
         y="916.36"
         width="6"
         height="32"
         fill="none"
         id="rect172" />
      <rect
         transform="scale(-1,1)"
         x="-13"
         y="916.36"
         width="6"
         height="32"
         fill="url(#l)"
         opacity=".9"
         id="rect174" />
      <rect
         transform="scale(-1,1)"
         x="-14"
         y="916.36"
         width="1"
         height="32"
         fill="none"
         id="rect176" />
    </g>
    <g
       id="shadow-right"
       transform="matrix(.26458 0 0 .26458 13.976 42.905)">
      <rect
         x="51"
         y="916.36"
         width="6"
         height="32"
         fill="none"
         id="rect179" />
      <rect
         x="57"
         y="916.36"
         width="6"
         height="32"
         fill="url(#m)"
         opacity=".9"
         id="rect181" />
      <rect
         x="56"
         y="916.36"
         width="1"
         height="32"
         fill="none"
         id="rect183" />
    </g>
    <g
       id="shadow-center"
       transform="matrix(.26458 0 0 .26458 13.976 42.905)"
       fill="none">
      <rect
         x="19"
         y="916.36"
         width="32"
         height="32"
         id="rect186" />
      <rect
         x="19"
         y="916.36"
         width="32"
         height="32"
         id="rect188" />
    </g>
    <g
       transform="matrix(.26458 0 0 .26458 -1.3698 42.905)"
       fill="#f0f"
       id="g195">
      <rect
         id="shadow-hint-top-margin"
         x="91"
         y="904.36"
         width="4"
         height="6" />
      <rect
         id="shadow-hint-bottom-margin"
         x="91"
         y="954.36"
         width="4"
         height="6" />
      <rect
         id="shadow-hint-right-margin"
         transform="rotate(90)"
         x="930.36"
         y="-121"
         width="4"
         height="6" />
      <rect
         id="shadow-hint-left-margin"
         transform="rotate(90)"
         x="930.36"
         y="-71"
         width="4"
         height="6" />
    </g>
  </g>
</svg>
