<?xml version="1.0" encoding="UTF-8" standalone="no"?>
<svg
   xmlns:dc="http://purl.org/dc/elements/1.1/"
   xmlns:cc="http://creativecommons.org/ns#"
   xmlns:rdf="http://www.w3.org/1999/02/22-rdf-syntax-ns#"
   xmlns:svg="http://www.w3.org/2000/svg"
   xmlns="http://www.w3.org/2000/svg"
   xmlns:sodipodi="http://sodipodi.sourceforge.net/DTD/sodipodi-0.dtd"
   xmlns:inkscape="http://www.inkscape.org/namespaces/inkscape"
   id="svg7384"
   width="32"
   height="32"
   version="1.1"
   style="enable-background:new"
   sodipodi:docname="office.svg"
   inkscape:version="0.92.4 (5da689c313, 2019-01-14)">
  <metadata
     id="metadata11">
    <rdf:RDF>
      <cc:Work
         rdf:about="">
        <dc:format>image/svg+xml</dc:format>
        <dc:type
           rdf:resource="http://purl.org/dc/dcmitype/StillImage" />
      </cc:Work>
    </rdf:RDF>
  </metadata>
  <sodipodi:namedview
     pagecolor="#ffffff"
     bordercolor="#666666"
     borderopacity="1"
     objecttolerance="10"
     gridtolerance="10"
     guidetolerance="10"
     inkscape:pageopacity="0"
     inkscape:pageshadow="2"
     inkscape:window-width="1366"
     inkscape:window-height="708"
     id="namedview9"
     showgrid="false"
     inkscape:zoom="7.375"
     inkscape:cx="13.867483"
     inkscape:cy="2.6952136"
     inkscape:window-x="0"
     inkscape:window-y="0"
     inkscape:window-maximized="1"
     inkscape:current-layer="svg7384" />
  <defs
     id="defs8">
    <style
       id="current-color-scheme"
       type="text/css">
   .ColorScheme-Text { color:#dedede; } .ColorScheme-Highlight { color:#5294e2; } .ColorScheme-ButtonBackground { color:#dedede; }
  </style>
  </defs>
  <g
     style="display:inline;stroke-width:0.5;enable-background:new"
     id="office-chart-pie"
     inkscape:label="#office-chart-pie"
     transform="matrix(2,0,0,2,-1450.0004,662.00671)">
    <rect
       y="-331.00336"
       x="725.00018"
       height="16"
       width="16"
       id="rect35762"
       style="color:#bebebe;display:inline;overflow:visible;visibility:visible;opacity:0.51464431;fill:none;stroke:none;stroke-width:1.5;marker:none;enable-background:accumulate" />
    <path
       inkscape:connector-curvature="0"
       id="path13895"
       d="m 728.00018,-330.00336 c -2,0 -2,2 -2,2 v 10 c 0,2 2,2 2,2 h 10 c 0,0 2,0 2,-2 v -10 c 0,-2 -2,-2 -2,-2 h -2 z m 1,3 h 1 2 1 3 1 v 7 h -8 z m 1,1 v 2 h 2 v -2 z m 3,0 v 2 h 3 v -2 z m -3,3 v 2 h 2 v -2 z m 3,0 v 2 h 3 v -2 z"
       style="display:inline;fill:#eaeaea;fill-opacity:1;stroke:none;stroke-width:0.5;filter:url(#filter14069);enable-background:new" />
  </g>
</svg>
